<?xml version="1.0" standalone="no"?>
<!DOCTYPE svg PUBLIC "-//W3C//DTD SVG 1.1//EN" "http://www.w3.org/Graphics/SVG/1.1/DTD/svg11.dtd" >
<svg xmlns="http://www.w3.org/2000/svg" xmlns:xlink="http://www.w3.org/1999/xlink" version="1.1">
<metadata>
Created by FontForge 20170731 at Thu Apr  3 23:47:29 2014
 By Aleksey,,,
Copyright 2014 Adobe Systems Incorporated. All rights reserved.
</metadata>
<defs>
<font id="NOVAegular" horiz-adv-x="575" >
  <font-face 
    font-family="NOVA"
    font-weight="400"
    font-stretch="normal"
    units-per-em="1000"
    panose-1="0 0 0 0 0 0 0 0 0 0"
    ascent="800"
    descent="-200"
    x-height="627"
    cap-height="632"
    bbox="-74 -137 1419.09 1000"
    underline-thickness="50"
    underline-position="-200"
    unicode-range="U+0020-F8FF"
  />
<missing-glyph horiz-adv-x="219" 
 />
    <glyph glyph-name=".notdef" horiz-adv-x="219" 
 />
    <glyph glyph-name=".null" horiz-adv-x="0" 
 />
    <glyph glyph-name="nonmarkingreturn" horiz-adv-x="333" 
 />
    <glyph glyph-name="space" unicode=" " horiz-adv-x="219" 
 />
    <glyph glyph-name="exclam" unicode="!" horiz-adv-x="131" 
d="M104 241h-102v417h102v-417zM104 96h-102v104h102v-104zM104 241h-102h102zM104 96h-102h102z" />
    <glyph glyph-name="quotedbl" unicode="&#x22;" horiz-adv-x="262" 
d="M136 631h99h-99zM122 631h-100h100zM22 631h100l-75 -154h-45zM136 631h99l-72 -154h-44z" />
    <glyph glyph-name="numbersign" unicode="#" horiz-adv-x="612" 
d="M242 633h69h-69zM251 434h125l-47 -154h-125zM311 633h-69l-39 -131h-123l-21 -68h123l-46 -154h-123l-21 -69h123l-43 -141h68l43 141h125l-42 -141h68l43 141h134l20 69h-134l47 154h134l21 68h-134l39 131h-68l-39 -131h-126z" />
    <glyph glyph-name="dollar" unicode="$" horiz-adv-x="578" 
d="M365 521l-81 -44q-6 10 -14 17l-10 -99l18 -7q24 -9 43 -25q31 -23 46 -57q16 -36 13 -72q-5 -53 -42 -92q-34 -37 -90 -45q-4 0 -9 -0.5t-9 -0.5l-3 -24h-52l3 30q-12 3 -29 11q-54 28 -72 68l-12 27q-5 14 -6 29l91 12l3 -13q2 -8 5 -11q10 -17 30 -28l12 119l-21 8
q-20 8 -43 25q-30 24 -43 54q-15 33 -12 67q3 50 39 87q33 35 84 42q16 2 25 2l3 30h51l-4 -39l9 -3t9 -4q46 -25 68 -64zM209 411l10 97h-2q-19 -3 -31 -15q-12 -15 -13 -30q-2 -12 4 -22q4 -9 16 -21q7 -5 16 -9zM250 300l-11 -111q19 4 33 17q13 15 15 35q2 17 -4 27
q-6 14 -19 24zM284 477l81 44z" />
    <glyph glyph-name="percent" unicode="%" horiz-adv-x="394" 
d="M305 165q9 -10 9 -22q0 -11 -9 -21q-11 -9 -21 -9q-12 0 -22 9q-8 11 -8 21q0 11 8 22q11 8 22 8q10 0 21 -8zM284 242q-41 0 -70 -29t-29 -70q0 -40 29 -69t70 -29q40 0 69 29t29 69q0 41 -29 70t-69 29zM119 568q9 -9 9 -21q0 -13 -9 -21q-7 -9 -21 -9q-12 0 -21 9
t-9 21q0 11 9 21q11 9 21 9q12 0 21 -9zM98 645q-40 0 -69 -29t-29 -69q0 -41 29 -70t69 -29q41 0 70 29t29 70q0 40 -29 69t-70 29zM251 696h67h-67zM318 696h-67l-186 -698l67 -1z" />
    <glyph glyph-name="ampersand" unicode="&#x26;" horiz-adv-x="523" 
d="M491 107l-79 -66l-76 94q-27 -23 -42 -31l-22 -12q-2 -2 -6.5 -4t-6.5 -3q-56 -37 -122 -25q-68 12 -106 68q-30 45 -26 97q3 47 39 92q21 27 90 71q-11 13 -31 44q-16 27 -19 57q-5 34 10 68q18 44 63 69q41 22 92 14q43 -8 76 -40q31 -31 38 -76q8 -47 -13.5 -83.5
t-65.5 -74.5l62 -79q5 5 9.5 10t9.5 11t9 10q36 40 59 63l72 -72q-9 -9 -28 -30.5t-26 -29.5l-40 -44zM273 215l-4 5q-37 48 -70 88q-64 -42 -76 -56q-15 -18 -16 -35q-1 -19 9 -31q14 -21 39 -25q23 -4 50 11l20 11q7 3 14 8q15 8 34 24zM220 446h-1h1zM192 482
q7 -12 28 -36q46 36 42 62q-3 14 -10 21q-10 8 -21 10q-16 3 -27 -4q-10 -4 -16 -17q-3 -7 -3 -18q1 -6 7 -18zM412 41l79 66z" />
    <glyph glyph-name="quotesingle" unicode="'" horiz-adv-x="132" 
d="M122 631h-100h100zM22 631h100l-75 -154h-45z" />
    <glyph glyph-name="parenleft" unicode="(" horiz-adv-x="154" 
d="M125 80v-103q-54 0 -92 38t-38 93v504q0 54 38 92q39 39 92 39v-103q-11 0 -19 -8q-9 -9 -9 -20v-504q0 -11 9 -20q8 -8 19 -8z" />
    <glyph glyph-name="parenright" unicode=")" horiz-adv-x="164" 
d="M2 -23v103q12 0 20 8t8 20v504q0 12 -8 20t-20 8v103q53 0 92 -39t39 -92v-504q0 -54 -39 -93q-38 -38 -92 -38z" />
    <glyph glyph-name="asterisk" unicode="*" horiz-adv-x="301" 
d="M117 655h68h-68zM185 655h-68v-69l-65 21l-21 -64l65 -21l-41 -56l56 -40l40 55l40 -55l55 40l-40 56l65 21l-21 65l-65 -21v68z" />
    <glyph glyph-name="comma" unicode="," horiz-adv-x="155" 
d="M25 106v5q0 21 15 36.5t37 15.5q21 0 36.5 -15.5t15.5 -36.5q0 -10 -3 -19q-6 -21 -31 -56t-46 -52h-49q25 46 25 122z" />
    <glyph glyph-name="hyphen" unicode="-" horiz-adv-x="362" 
d="M0 197v90h322v-90h-322z" />
    <glyph glyph-name="period" unicode="." horiz-adv-x="129" 
d="M54 163q21 0 36.5 -15.5t15.5 -36.5q0 -22 -15.5 -37t-36.5 -15q-22 0 -37 15t-15 37q0 21 15 36.5t37 15.5z" />
    <glyph glyph-name="slash" unicode="/" horiz-adv-x="280" 
d="M191 696h67h-67zM258 696h-67l-186 -698l67 -1z" />
    <glyph glyph-name="zero" unicode="0" horiz-adv-x="1419" 
d="M1419 118q2 -44 -40 -44q-40 0 -43 47l10 9l14 -7q2 -27 18 -27q16 3 16 20q0 13 -20 33q-15 14 -29 29q-6 15 -6 25q0 42 39 42q37 0 40 -39l-24 -5q-1 22 -16 22q-13 0 -13 -19q0 -12 33 -45q21 -21 21 -41zM1266 75v143h-26v25h79v-25h-28v-143l-12 -9zM1385 0h-5
l21 45h5zM1334 1h-6v35h6l17 -21l17 21h6v-35h-8v24l-15 -20h-1l-16 20v-24zM603 760l110 240l106 -239l262 -30l-193 -175l53 -258l-227 130l-230 -130l54 255l-195 178zM1133 243h28l33 -113v113h26v-168h-27l-35 108v-108h-25v144l-9 11zM1269 10v18q0 8 9 8h26q9 0 9 -8
v-18q0 -9 -9 -9h-26q-9 0 -9 9zM1248 23v6h-23v-21h23v7l7 -1v-4q0 -9 -9 -9h-21q-9 0 -9 9v18q0 8 9 8h21q9 0 9 -8v-4zM1070 245q40 0 40 -40v-91q0 -40 -40 -40t-40 40v91q0 40 40 40zM1190 14h11q2 -2 2 -3v-7q0 -1 -2 -3h-10q-1 0 -1 2v11zM1179 30h-16v-29h-9v29h-16
v6h41v-6zM966 146v-71h-25v143l-8 12l8 13h72v-25h-47v-47h34v-25h-34zM1084 10v18q0 8 9 8h26q9 0 9 -8v-18q0 -9 -9 -9h-26q-9 0 -9 9zM1041 1h-8v35h31q9 0 9 -7v-8q0 -6 -9 -6h-23v-14zM906 100v-25h-68v168l12 10l13 -10v-143h43zM1011 26v4h-23v-7h22q9 0 9 -9v-4
q0 -9 -9 -9h-22q-9 0 -9 9l6 1v-3h26v7h-22q-9 0 -9 9v4q0 8 9 8h20q9 0 9 -7v-1zM956 26v3h-26v-21h26v7h-13v6h22v-11q0 -9 -9 -9h-25q-8 0 -8 9v18q0 8 8 8h25q9 0 9 -8zM820 75h-71v143l-9 12l9 13h71v-25h-46v-47h34v-25h-34v-46h46v-25zM864 10v18q0 8 9 8h27
q9 0 9 -8v-18q0 -9 -9 -9h-27q-9 0 -9 9zM855 1h-35v35h9v-28h26v-7zM686 73q-40 0 -40 40v91q0 41 40 41t40 -41v-19h-26v20q0 15 -14 15q-15 0 -15 -15v-91q0 -15 15 -15q14 0 14 15v32h-14l-10 12l10 13h40v-58q0 -40 -40 -40zM795 1h-29v35h32q7 0 7 -7v-4q0 -4 -5 -6
q6 -1 6 -6v-5q0 -7 -11 -7zM740 14h11v-13h-10q-2 0 -2 3v7q0 2 1 3zM545 243h39q40 0 40 -40v-24q0 -19 -14 -30l19 -74h-28l-15 64h-16v-64h-25v144l-9 11zM730 1h-35v35h9v-28h26v-7zM683 1h-38v35h38v-6h-29v-7h16v-7h-16v-8h29v-7zM491 114h-26l-6 -39l-14 -7l-12 7
l27 168h35l29 -168l-14 -7l-14 7zM623 26v3h-27v-21h27v7h-14v6h22v-11q0 -9 -8 -9h-25q-9 0 -9 9v18q0 8 9 8h25q8 0 8 -8zM545 1h-9v35h32q7 0 7 -7v-8q0 -7 -7 -7h-5l16 -13h-11l-15 13h-8v-13zM488 1h-9l20 35h9l20 -35h-9l-5 8h-23zM339 75v70l-34 98h28l18 -60l19 60
h28l-34 -98v-70h-25zM461 1h-7v15l-19 20h11l12 -13l12 13h10l-19 -18v-17zM319 100v-25h-69v168l11 10l14 -10v-143h44zM440 1h-36v35h9v-28h27v-7zM395 1h-35v35h8v-28h27v-7zM233 100v-25h-69v168l11 10l14 -10v-143h44zM344 1h-8v35h8v-35zM311 1h-28v35h31q7 0 7 -7v-4
q0 -5 -6 -6q6 -1 6 -6v-5q0 -7 -10 -7zM255 0h-5l21 45h5zM141 243v-168l-13 -9l-13 9v168h26zM233 0h-5l21 45h5zM214 36h6q2 0 3 -1v-11h-13v11q1 1 4 1zM210 14h13v-13h-12l-1 2v11zM55 75h-46v143l-9 11l9 14h37q44 0 44 -47q0 -24 -17 -33q21 -7 21 -40q0 -48 -39 -48z
M168 1h-9v35h31q9 0 9 -7v-8q0 -6 -9 -6h-22v-14zM149 30h-18v-29h-7v29h-16v6h41v-6zM104 30h-16v-29h-9v29h-16v6h41v-6zM18 1h-9v35h9v-13h26v13h7v-35h-7v15h-26v-15zM781 426l28 18l-60 361h-75l-61 -361l28 -18l28 18l14 82h56l12 -82zM1276 29v-21h29v21h-29z
M1084 114v91q0 15 -14 15q-15 0 -15 -15v-91q0 -15 15 -15q14 0 14 15zM1091 29v-21h28v21h-28zM1060 30h-19v-9h19q4 0 4 3v4q0 2 -4 2zM873 29v-21h27v21h-27zM794 30h-19v-7h19q4 0 4 2v3q0 2 -4 2zM794 16h-19v-8h19q4 0 4 2v4q0 2 -4 2zM599 178v25q0 13 -14 13h-15
v-52h15q14 0 14 14zM488 139l-10 65l-9 -65h19zM564 30h-19v-10h19q4 0 4 3v5q0 2 -4 2zM503 30l-8 -15h16zM310 30h-20v-7h20q4 0 4 2v3q0 2 -4 2zM310 16h-20v-8h20q4 0 4 2v4q0 2 -4 2zM36 218v-44h10q18 0 18 22t-18 22h-10zM186 30h-18v-9h18q4 0 4 3v4q0 2 -4 2z
M36 150v-50h10q20 0 20 24q0 26 -20 26h-10zM690 580l20 143l21 -143h-41z" />
    <glyph glyph-name="one" unicode="1" horiz-adv-x="1419" 
d="M1419 118q2 -44 -40 -44q-40 0 -43 47l10 9l14 -7q2 -27 18 -27q16 3 16 20q0 13 -20 33q-15 14 -29 29q-6 15 -6 25q0 42 39 42q37 0 40 -39l-24 -5q-1 22 -16 22q-13 0 -13 -19q0 -12 33 -45q21 -21 21 -41zM1266 75v143h-26v25h79v-25h-28v-143l-12 -9zM1385 0h-5
l21 45h5zM1334 1h-6v35h6l17 -21l17 21h6v-35h-8v24l-15 -20h-1l-16 20v-24zM603 760l110 240l106 -239l262 -30l-193 -175l53 -258l-227 130l-230 -130l54 255l-195 178zM1133 243h28l33 -113v113h26v-168h-27l-35 108v-108h-25v144l-9 11zM1269 10v18q0 8 9 8h26q9 0 9 -8
v-18q0 -9 -9 -9h-26q-9 0 -9 9zM1248 23v6h-23v-21h23v7l7 -1v-4q0 -9 -9 -9h-21q-9 0 -9 9v18q0 8 9 8h21q9 0 9 -8v-4zM1070 245q40 0 40 -40v-91q0 -40 -40 -40t-40 40v91q0 40 40 40zM1190 14h11q2 -2 2 -3v-7q0 -1 -2 -3h-10q-1 0 -1 2v11zM1179 30h-16v-29h-9v29h-16
v6h41v-6zM966 146v-71h-25v143l-8 12l8 13h72v-25h-47v-47h34v-25h-34zM1084 10v18q0 8 9 8h26q9 0 9 -8v-18q0 -9 -9 -9h-26q-9 0 -9 9zM1041 1h-8v35h31q9 0 9 -7v-8q0 -6 -9 -6h-23v-14zM906 100v-25h-68v168l12 10l13 -10v-143h43zM1011 26v4h-23v-7h22q9 0 9 -9v-4
q0 -9 -9 -9h-22q-9 0 -9 9l6 1v-3h26v7h-22q-9 0 -9 9v4q0 8 9 8h20q9 0 9 -7v-1zM956 26v3h-26v-21h26v7h-13v6h22v-11q0 -9 -9 -9h-25q-8 0 -8 9v18q0 8 8 8h25q9 0 9 -8zM820 75h-71v143l-9 12l9 13h71v-25h-46v-47h34v-25h-34v-46h46v-25zM864 10v18q0 8 9 8h27
q9 0 9 -8v-18q0 -9 -9 -9h-27q-9 0 -9 9zM855 1h-35v35h9v-28h26v-7zM686 73q-40 0 -40 40v91q0 41 40 41t40 -41v-19h-26v20q0 15 -14 15q-15 0 -15 -15v-91q0 -15 15 -15q14 0 14 15v32h-14l-10 12l10 13h40v-58q0 -40 -40 -40zM795 1h-29v35h32q7 0 7 -7v-4q0 -4 -5 -6
q6 -1 6 -6v-5q0 -7 -11 -7zM740 14h11v-13h-10q-2 0 -2 3v7q0 2 1 3zM545 243h39q40 0 40 -40v-24q0 -19 -14 -30l19 -74h-28l-15 64h-16v-64h-25v144l-9 11zM730 1h-35v35h9v-28h26v-7zM683 1h-38v35h38v-6h-29v-7h16v-7h-16v-8h29v-7zM491 114h-26l-6 -39l-14 -7l-12 7
l27 168h35l29 -168l-14 -7l-14 7zM623 26v3h-27v-21h27v7h-14v6h22v-11q0 -9 -8 -9h-25q-9 0 -9 9v18q0 8 9 8h25q8 0 8 -8zM545 1h-9v35h32q7 0 7 -7v-8q0 -7 -7 -7h-5l16 -13h-11l-15 13h-8v-13zM488 1h-9l20 35h9l20 -35h-9l-5 8h-23zM339 75v70l-34 98h28l18 -60l19 60
h28l-34 -98v-70h-25zM461 1h-7v15l-19 20h11l12 -13l12 13h10l-19 -18v-17zM319 100v-25h-69v168l11 10l14 -10v-143h44zM440 1h-36v35h9v-28h27v-7zM395 1h-35v35h8v-28h27v-7zM233 100v-25h-69v168l11 10l14 -10v-143h44zM344 1h-8v35h8v-35zM311 1h-28v35h31q7 0 7 -7v-4
q0 -5 -6 -6q6 -1 6 -6v-5q0 -7 -10 -7zM255 0h-5l21 45h5zM141 243v-168l-13 -9l-13 9v168h26zM233 0h-5l21 45h5zM214 36h6q2 0 3 -1v-11h-13v11q1 1 4 1zM210 14h13v-13h-12l-1 2v11zM55 75h-46v143l-9 11l9 14h37q44 0 44 -47q0 -24 -17 -33q21 -7 21 -40q0 -48 -39 -48z
M168 1h-9v35h31q9 0 9 -7v-8q0 -6 -9 -6h-22v-14zM149 30h-18v-29h-7v29h-16v6h41v-6zM104 30h-16v-29h-9v29h-16v6h41v-6zM18 1h-9v35h9v-13h26v13h7v-35h-7v15h-26v-15zM781 426l28 18l-60 361h-75l-61 -361l28 -18l28 18l14 82h56l12 -82zM1276 29v-21h29v21h-29z
M1084 114v91q0 15 -14 15q-15 0 -15 -15v-91q0 -15 15 -15q14 0 14 15zM1091 29v-21h28v21h-28zM1060 30h-19v-9h19q4 0 4 3v4q0 2 -4 2zM873 29v-21h27v21h-27zM794 30h-19v-7h19q4 0 4 2v3q0 2 -4 2zM794 16h-19v-8h19q4 0 4 2v4q0 2 -4 2zM599 178v25q0 13 -14 13h-15
v-52h15q14 0 14 14zM488 139l-10 65l-9 -65h19zM564 30h-19v-10h19q4 0 4 3v5q0 2 -4 2zM503 30l-8 -15h16zM310 30h-20v-7h20q4 0 4 2v3q0 2 -4 2zM310 16h-20v-8h20q4 0 4 2v4q0 2 -4 2zM36 218v-44h10q18 0 18 22t-18 22h-10zM186 30h-18v-9h18q4 0 4 3v4q0 2 -4 2z
M36 150v-50h10q20 0 20 24q0 26 -20 26h-10zM690 580l20 143l21 -143h-41z" />
    <glyph glyph-name="two" unicode="2" horiz-adv-x="1419" 
d="M1419 118q2 -44 -40 -44q-40 0 -43 47l10 9l14 -7q2 -27 18 -27q16 3 16 20q0 13 -20 33q-15 14 -29 29q-6 15 -6 25q0 42 39 42q37 0 40 -39l-24 -5q-1 22 -16 22q-13 0 -13 -19q0 -12 33 -45q21 -21 21 -41zM1266 75v143h-26v25h79v-25h-28v-143l-12 -9zM1385 0h-5
l21 45h5zM1334 1h-6v35h6l17 -21l17 21h6v-35h-8v24l-15 -20h-1l-16 20v-24zM603 760l110 240l106 -239l262 -30l-193 -175l53 -258l-227 130l-230 -130l54 255l-195 178zM1133 243h28l33 -113v113h26v-168h-27l-35 108v-108h-25v144l-9 11zM1269 10v18q0 8 9 8h26q9 0 9 -8
v-18q0 -9 -9 -9h-26q-9 0 -9 9zM1248 23v6h-23v-21h23v7l7 -1v-4q0 -9 -9 -9h-21q-9 0 -9 9v18q0 8 9 8h21q9 0 9 -8v-4zM1070 245q40 0 40 -40v-91q0 -40 -40 -40t-40 40v91q0 40 40 40zM1190 14h11q2 -2 2 -3v-7q0 -1 -2 -3h-10q-1 0 -1 2v11zM1179 30h-16v-29h-9v29h-16
v6h41v-6zM966 146v-71h-25v143l-8 12l8 13h72v-25h-47v-47h34v-25h-34zM1084 10v18q0 8 9 8h26q9 0 9 -8v-18q0 -9 -9 -9h-26q-9 0 -9 9zM1041 1h-8v35h31q9 0 9 -7v-8q0 -6 -9 -6h-23v-14zM906 100v-25h-68v168l12 10l13 -10v-143h43zM1011 26v4h-23v-7h22q9 0 9 -9v-4
q0 -9 -9 -9h-22q-9 0 -9 9l6 1v-3h26v7h-22q-9 0 -9 9v4q0 8 9 8h20q9 0 9 -7v-1zM956 26v3h-26v-21h26v7h-13v6h22v-11q0 -9 -9 -9h-25q-8 0 -8 9v18q0 8 8 8h25q9 0 9 -8zM820 75h-71v143l-9 12l9 13h71v-25h-46v-47h34v-25h-34v-46h46v-25zM864 10v18q0 8 9 8h27
q9 0 9 -8v-18q0 -9 -9 -9h-27q-9 0 -9 9zM855 1h-35v35h9v-28h26v-7zM686 73q-40 0 -40 40v91q0 41 40 41t40 -41v-19h-26v20q0 15 -14 15q-15 0 -15 -15v-91q0 -15 15 -15q14 0 14 15v32h-14l-10 12l10 13h40v-58q0 -40 -40 -40zM795 1h-29v35h32q7 0 7 -7v-4q0 -4 -5 -6
q6 -1 6 -6v-5q0 -7 -11 -7zM740 14h11v-13h-10q-2 0 -2 3v7q0 2 1 3zM545 243h39q40 0 40 -40v-24q0 -19 -14 -30l19 -74h-28l-15 64h-16v-64h-25v144l-9 11zM730 1h-35v35h9v-28h26v-7zM683 1h-38v35h38v-6h-29v-7h16v-7h-16v-8h29v-7zM491 114h-26l-6 -39l-14 -7l-12 7
l27 168h35l29 -168l-14 -7l-14 7zM623 26v3h-27v-21h27v7h-14v6h22v-11q0 -9 -8 -9h-25q-9 0 -9 9v18q0 8 9 8h25q8 0 8 -8zM545 1h-9v35h32q7 0 7 -7v-8q0 -7 -7 -7h-5l16 -13h-11l-15 13h-8v-13zM488 1h-9l20 35h9l20 -35h-9l-5 8h-23zM339 75v70l-34 98h28l18 -60l19 60
h28l-34 -98v-70h-25zM461 1h-7v15l-19 20h11l12 -13l12 13h10l-19 -18v-17zM319 100v-25h-69v168l11 10l14 -10v-143h44zM440 1h-36v35h9v-28h27v-7zM395 1h-35v35h8v-28h27v-7zM233 100v-25h-69v168l11 10l14 -10v-143h44zM344 1h-8v35h8v-35zM311 1h-28v35h31q7 0 7 -7v-4
q0 -5 -6 -6q6 -1 6 -6v-5q0 -7 -10 -7zM255 0h-5l21 45h5zM141 243v-168l-13 -9l-13 9v168h26zM233 0h-5l21 45h5zM214 36h6q2 0 3 -1v-11h-13v11q1 1 4 1zM210 14h13v-13h-12l-1 2v11zM55 75h-46v143l-9 11l9 14h37q44 0 44 -47q0 -24 -17 -33q21 -7 21 -40q0 -48 -39 -48z
M168 1h-9v35h31q9 0 9 -7v-8q0 -6 -9 -6h-22v-14zM149 30h-18v-29h-7v29h-16v6h41v-6zM104 30h-16v-29h-9v29h-16v6h41v-6zM18 1h-9v35h9v-13h26v13h7v-35h-7v15h-26v-15zM781 426l28 18l-60 361h-75l-61 -361l28 -18l28 18l14 82h56l12 -82zM1276 29v-21h29v21h-29z
M1084 114v91q0 15 -14 15q-15 0 -15 -15v-91q0 -15 15 -15q14 0 14 15zM1091 29v-21h28v21h-28zM1060 30h-19v-9h19q4 0 4 3v4q0 2 -4 2zM873 29v-21h27v21h-27zM794 30h-19v-7h19q4 0 4 2v3q0 2 -4 2zM794 16h-19v-8h19q4 0 4 2v4q0 2 -4 2zM599 178v25q0 13 -14 13h-15
v-52h15q14 0 14 14zM488 139l-10 65l-9 -65h19zM564 30h-19v-10h19q4 0 4 3v5q0 2 -4 2zM503 30l-8 -15h16zM310 30h-20v-7h20q4 0 4 2v3q0 2 -4 2zM310 16h-20v-8h20q4 0 4 2v4q0 2 -4 2zM36 218v-44h10q18 0 18 22t-18 22h-10zM186 30h-18v-9h18q4 0 4 3v4q0 2 -4 2z
M36 150v-50h10q20 0 20 24q0 26 -20 26h-10zM690 580l20 143l21 -143h-41z" />
    <glyph glyph-name="three" unicode="3" horiz-adv-x="1419" 
d="M1419 118q2 -44 -40 -44q-40 0 -43 47l10 9l14 -7q2 -27 18 -27q16 3 16 20q0 13 -20 33q-15 14 -29 29q-6 15 -6 25q0 42 39 42q37 0 40 -39l-24 -5q-1 22 -16 22q-13 0 -13 -19q0 -12 33 -45q21 -21 21 -41zM1266 75v143h-26v25h79v-25h-28v-143l-12 -9zM1385 0h-5
l21 45h5zM1334 1h-6v35h6l17 -21l17 21h6v-35h-8v24l-15 -20h-1l-16 20v-24zM603 760l110 240l106 -239l262 -30l-193 -175l53 -258l-227 130l-230 -130l54 255l-195 178zM1133 243h28l33 -113v113h26v-168h-27l-35 108v-108h-25v144l-9 11zM1269 10v18q0 8 9 8h26q9 0 9 -8
v-18q0 -9 -9 -9h-26q-9 0 -9 9zM1248 23v6h-23v-21h23v7l7 -1v-4q0 -9 -9 -9h-21q-9 0 -9 9v18q0 8 9 8h21q9 0 9 -8v-4zM1070 245q40 0 40 -40v-91q0 -40 -40 -40t-40 40v91q0 40 40 40zM1190 14h11q2 -2 2 -3v-7q0 -1 -2 -3h-10q-1 0 -1 2v11zM1179 30h-16v-29h-9v29h-16
v6h41v-6zM966 146v-71h-25v143l-8 12l8 13h72v-25h-47v-47h34v-25h-34zM1084 10v18q0 8 9 8h26q9 0 9 -8v-18q0 -9 -9 -9h-26q-9 0 -9 9zM1041 1h-8v35h31q9 0 9 -7v-8q0 -6 -9 -6h-23v-14zM906 100v-25h-68v168l12 10l13 -10v-143h43zM1011 26v4h-23v-7h22q9 0 9 -9v-4
q0 -9 -9 -9h-22q-9 0 -9 9l6 1v-3h26v7h-22q-9 0 -9 9v4q0 8 9 8h20q9 0 9 -7v-1zM956 26v3h-26v-21h26v7h-13v6h22v-11q0 -9 -9 -9h-25q-8 0 -8 9v18q0 8 8 8h25q9 0 9 -8zM820 75h-71v143l-9 12l9 13h71v-25h-46v-47h34v-25h-34v-46h46v-25zM864 10v18q0 8 9 8h27
q9 0 9 -8v-18q0 -9 -9 -9h-27q-9 0 -9 9zM855 1h-35v35h9v-28h26v-7zM686 73q-40 0 -40 40v91q0 41 40 41t40 -41v-19h-26v20q0 15 -14 15q-15 0 -15 -15v-91q0 -15 15 -15q14 0 14 15v32h-14l-10 12l10 13h40v-58q0 -40 -40 -40zM795 1h-29v35h32q7 0 7 -7v-4q0 -4 -5 -6
q6 -1 6 -6v-5q0 -7 -11 -7zM740 14h11v-13h-10q-2 0 -2 3v7q0 2 1 3zM545 243h39q40 0 40 -40v-24q0 -19 -14 -30l19 -74h-28l-15 64h-16v-64h-25v144l-9 11zM730 1h-35v35h9v-28h26v-7zM683 1h-38v35h38v-6h-29v-7h16v-7h-16v-8h29v-7zM491 114h-26l-6 -39l-14 -7l-12 7
l27 168h35l29 -168l-14 -7l-14 7zM623 26v3h-27v-21h27v7h-14v6h22v-11q0 -9 -8 -9h-25q-9 0 -9 9v18q0 8 9 8h25q8 0 8 -8zM545 1h-9v35h32q7 0 7 -7v-8q0 -7 -7 -7h-5l16 -13h-11l-15 13h-8v-13zM488 1h-9l20 35h9l20 -35h-9l-5 8h-23zM339 75v70l-34 98h28l18 -60l19 60
h28l-34 -98v-70h-25zM461 1h-7v15l-19 20h11l12 -13l12 13h10l-19 -18v-17zM319 100v-25h-69v168l11 10l14 -10v-143h44zM440 1h-36v35h9v-28h27v-7zM395 1h-35v35h8v-28h27v-7zM233 100v-25h-69v168l11 10l14 -10v-143h44zM344 1h-8v35h8v-35zM311 1h-28v35h31q7 0 7 -7v-4
q0 -5 -6 -6q6 -1 6 -6v-5q0 -7 -10 -7zM255 0h-5l21 45h5zM141 243v-168l-13 -9l-13 9v168h26zM233 0h-5l21 45h5zM214 36h6q2 0 3 -1v-11h-13v11q1 1 4 1zM210 14h13v-13h-12l-1 2v11zM55 75h-46v143l-9 11l9 14h37q44 0 44 -47q0 -24 -17 -33q21 -7 21 -40q0 -48 -39 -48z
M168 1h-9v35h31q9 0 9 -7v-8q0 -6 -9 -6h-22v-14zM149 30h-18v-29h-7v29h-16v6h41v-6zM104 30h-16v-29h-9v29h-16v6h41v-6zM18 1h-9v35h9v-13h26v13h7v-35h-7v15h-26v-15zM781 426l28 18l-60 361h-75l-61 -361l28 -18l28 18l14 82h56l12 -82zM1276 29v-21h29v21h-29z
M1084 114v91q0 15 -14 15q-15 0 -15 -15v-91q0 -15 15 -15q14 0 14 15zM1091 29v-21h28v21h-28zM1060 30h-19v-9h19q4 0 4 3v4q0 2 -4 2zM873 29v-21h27v21h-27zM794 30h-19v-7h19q4 0 4 2v3q0 2 -4 2zM794 16h-19v-8h19q4 0 4 2v4q0 2 -4 2zM599 178v25q0 13 -14 13h-15
v-52h15q14 0 14 14zM488 139l-10 65l-9 -65h19zM564 30h-19v-10h19q4 0 4 3v5q0 2 -4 2zM503 30l-8 -15h16zM310 30h-20v-7h20q4 0 4 2v3q0 2 -4 2zM310 16h-20v-8h20q4 0 4 2v4q0 2 -4 2zM36 218v-44h10q18 0 18 22t-18 22h-10zM186 30h-18v-9h18q4 0 4 3v4q0 2 -4 2z
M36 150v-50h10q20 0 20 24q0 26 -20 26h-10zM690 580l20 143l21 -143h-41z" />
    <glyph glyph-name="four" unicode="4" horiz-adv-x="1419" 
d="M1419 118q2 -44 -40 -44q-40 0 -43 47l10 9l14 -7q2 -27 18 -27q16 3 16 20q0 13 -20 33q-15 14 -29 29q-6 15 -6 25q0 42 39 42q37 0 40 -39l-24 -5q-1 22 -16 22q-13 0 -13 -19q0 -12 33 -45q21 -21 21 -41zM1266 75v143h-26v25h79v-25h-28v-143l-12 -9zM1385 0h-5
l21 45h5zM1334 1h-6v35h6l17 -21l17 21h6v-35h-8v24l-15 -20h-1l-16 20v-24zM603 760l110 240l106 -239l262 -30l-193 -175l53 -258l-227 130l-230 -130l54 255l-195 178zM1133 243h28l33 -113v113h26v-168h-27l-35 108v-108h-25v144l-9 11zM1269 10v18q0 8 9 8h26q9 0 9 -8
v-18q0 -9 -9 -9h-26q-9 0 -9 9zM1248 23v6h-23v-21h23v7l7 -1v-4q0 -9 -9 -9h-21q-9 0 -9 9v18q0 8 9 8h21q9 0 9 -8v-4zM1070 245q40 0 40 -40v-91q0 -40 -40 -40t-40 40v91q0 40 40 40zM1190 14h11q2 -2 2 -3v-7q0 -1 -2 -3h-10q-1 0 -1 2v11zM1179 30h-16v-29h-9v29h-16
v6h41v-6zM966 146v-71h-25v143l-8 12l8 13h72v-25h-47v-47h34v-25h-34zM1084 10v18q0 8 9 8h26q9 0 9 -8v-18q0 -9 -9 -9h-26q-9 0 -9 9zM1041 1h-8v35h31q9 0 9 -7v-8q0 -6 -9 -6h-23v-14zM906 100v-25h-68v168l12 10l13 -10v-143h43zM1011 26v4h-23v-7h22q9 0 9 -9v-4
q0 -9 -9 -9h-22q-9 0 -9 9l6 1v-3h26v7h-22q-9 0 -9 9v4q0 8 9 8h20q9 0 9 -7v-1zM956 26v3h-26v-21h26v7h-13v6h22v-11q0 -9 -9 -9h-25q-8 0 -8 9v18q0 8 8 8h25q9 0 9 -8zM820 75h-71v143l-9 12l9 13h71v-25h-46v-47h34v-25h-34v-46h46v-25zM864 10v18q0 8 9 8h27
q9 0 9 -8v-18q0 -9 -9 -9h-27q-9 0 -9 9zM855 1h-35v35h9v-28h26v-7zM686 73q-40 0 -40 40v91q0 41 40 41t40 -41v-19h-26v20q0 15 -14 15q-15 0 -15 -15v-91q0 -15 15 -15q14 0 14 15v32h-14l-10 12l10 13h40v-58q0 -40 -40 -40zM795 1h-29v35h32q7 0 7 -7v-4q0 -4 -5 -6
q6 -1 6 -6v-5q0 -7 -11 -7zM740 14h11v-13h-10q-2 0 -2 3v7q0 2 1 3zM545 243h39q40 0 40 -40v-24q0 -19 -14 -30l19 -74h-28l-15 64h-16v-64h-25v144l-9 11zM730 1h-35v35h9v-28h26v-7zM683 1h-38v35h38v-6h-29v-7h16v-7h-16v-8h29v-7zM491 114h-26l-6 -39l-14 -7l-12 7
l27 168h35l29 -168l-14 -7l-14 7zM623 26v3h-27v-21h27v7h-14v6h22v-11q0 -9 -8 -9h-25q-9 0 -9 9v18q0 8 9 8h25q8 0 8 -8zM545 1h-9v35h32q7 0 7 -7v-8q0 -7 -7 -7h-5l16 -13h-11l-15 13h-8v-13zM488 1h-9l20 35h9l20 -35h-9l-5 8h-23zM339 75v70l-34 98h28l18 -60l19 60
h28l-34 -98v-70h-25zM461 1h-7v15l-19 20h11l12 -13l12 13h10l-19 -18v-17zM319 100v-25h-69v168l11 10l14 -10v-143h44zM440 1h-36v35h9v-28h27v-7zM395 1h-35v35h8v-28h27v-7zM233 100v-25h-69v168l11 10l14 -10v-143h44zM344 1h-8v35h8v-35zM311 1h-28v35h31q7 0 7 -7v-4
q0 -5 -6 -6q6 -1 6 -6v-5q0 -7 -10 -7zM255 0h-5l21 45h5zM141 243v-168l-13 -9l-13 9v168h26zM233 0h-5l21 45h5zM214 36h6q2 0 3 -1v-11h-13v11q1 1 4 1zM210 14h13v-13h-12l-1 2v11zM55 75h-46v143l-9 11l9 14h37q44 0 44 -47q0 -24 -17 -33q21 -7 21 -40q0 -48 -39 -48z
M168 1h-9v35h31q9 0 9 -7v-8q0 -6 -9 -6h-22v-14zM149 30h-18v-29h-7v29h-16v6h41v-6zM104 30h-16v-29h-9v29h-16v6h41v-6zM18 1h-9v35h9v-13h26v13h7v-35h-7v15h-26v-15zM781 426l28 18l-60 361h-75l-61 -361l28 -18l28 18l14 82h56l12 -82zM1276 29v-21h29v21h-29z
M1084 114v91q0 15 -14 15q-15 0 -15 -15v-91q0 -15 15 -15q14 0 14 15zM1091 29v-21h28v21h-28zM1060 30h-19v-9h19q4 0 4 3v4q0 2 -4 2zM873 29v-21h27v21h-27zM794 30h-19v-7h19q4 0 4 2v3q0 2 -4 2zM794 16h-19v-8h19q4 0 4 2v4q0 2 -4 2zM599 178v25q0 13 -14 13h-15
v-52h15q14 0 14 14zM488 139l-10 65l-9 -65h19zM564 30h-19v-10h19q4 0 4 3v5q0 2 -4 2zM503 30l-8 -15h16zM310 30h-20v-7h20q4 0 4 2v3q0 2 -4 2zM310 16h-20v-8h20q4 0 4 2v4q0 2 -4 2zM36 218v-44h10q18 0 18 22t-18 22h-10zM186 30h-18v-9h18q4 0 4 3v4q0 2 -4 2z
M36 150v-50h10q20 0 20 24q0 26 -20 26h-10zM690 580l20 143l21 -143h-41z" />
    <glyph glyph-name="five" unicode="5" horiz-adv-x="1419" 
d="M1419 118q2 -44 -40 -44q-40 0 -43 47l10 9l14 -7q2 -27 18 -27q16 3 16 20q0 13 -20 33q-15 14 -29 29q-6 15 -6 25q0 42 39 42q37 0 40 -39l-24 -5q-1 22 -16 22q-13 0 -13 -19q0 -12 33 -45q21 -21 21 -41zM1266 75v143h-26v25h79v-25h-28v-143l-12 -9zM1385 0h-5
l21 45h5zM1334 1h-6v35h6l17 -21l17 21h6v-35h-8v24l-15 -20h-1l-16 20v-24zM603 760l110 240l106 -239l262 -30l-193 -175l53 -258l-227 130l-230 -130l54 255l-195 178zM1133 243h28l33 -113v113h26v-168h-27l-35 108v-108h-25v144l-9 11zM1269 10v18q0 8 9 8h26q9 0 9 -8
v-18q0 -9 -9 -9h-26q-9 0 -9 9zM1248 23v6h-23v-21h23v7l7 -1v-4q0 -9 -9 -9h-21q-9 0 -9 9v18q0 8 9 8h21q9 0 9 -8v-4zM1070 245q40 0 40 -40v-91q0 -40 -40 -40t-40 40v91q0 40 40 40zM1190 14h11q2 -2 2 -3v-7q0 -1 -2 -3h-10q-1 0 -1 2v11zM1179 30h-16v-29h-9v29h-16
v6h41v-6zM966 146v-71h-25v143l-8 12l8 13h72v-25h-47v-47h34v-25h-34zM1084 10v18q0 8 9 8h26q9 0 9 -8v-18q0 -9 -9 -9h-26q-9 0 -9 9zM1041 1h-8v35h31q9 0 9 -7v-8q0 -6 -9 -6h-23v-14zM906 100v-25h-68v168l12 10l13 -10v-143h43zM1011 26v4h-23v-7h22q9 0 9 -9v-4
q0 -9 -9 -9h-22q-9 0 -9 9l6 1v-3h26v7h-22q-9 0 -9 9v4q0 8 9 8h20q9 0 9 -7v-1zM956 26v3h-26v-21h26v7h-13v6h22v-11q0 -9 -9 -9h-25q-8 0 -8 9v18q0 8 8 8h25q9 0 9 -8zM820 75h-71v143l-9 12l9 13h71v-25h-46v-47h34v-25h-34v-46h46v-25zM864 10v18q0 8 9 8h27
q9 0 9 -8v-18q0 -9 -9 -9h-27q-9 0 -9 9zM855 1h-35v35h9v-28h26v-7zM686 73q-40 0 -40 40v91q0 41 40 41t40 -41v-19h-26v20q0 15 -14 15q-15 0 -15 -15v-91q0 -15 15 -15q14 0 14 15v32h-14l-10 12l10 13h40v-58q0 -40 -40 -40zM795 1h-29v35h32q7 0 7 -7v-4q0 -4 -5 -6
q6 -1 6 -6v-5q0 -7 -11 -7zM740 14h11v-13h-10q-2 0 -2 3v7q0 2 1 3zM545 243h39q40 0 40 -40v-24q0 -19 -14 -30l19 -74h-28l-15 64h-16v-64h-25v144l-9 11zM730 1h-35v35h9v-28h26v-7zM683 1h-38v35h38v-6h-29v-7h16v-7h-16v-8h29v-7zM491 114h-26l-6 -39l-14 -7l-12 7
l27 168h35l29 -168l-14 -7l-14 7zM623 26v3h-27v-21h27v7h-14v6h22v-11q0 -9 -8 -9h-25q-9 0 -9 9v18q0 8 9 8h25q8 0 8 -8zM545 1h-9v35h32q7 0 7 -7v-8q0 -7 -7 -7h-5l16 -13h-11l-15 13h-8v-13zM488 1h-9l20 35h9l20 -35h-9l-5 8h-23zM339 75v70l-34 98h28l18 -60l19 60
h28l-34 -98v-70h-25zM461 1h-7v15l-19 20h11l12 -13l12 13h10l-19 -18v-17zM319 100v-25h-69v168l11 10l14 -10v-143h44zM440 1h-36v35h9v-28h27v-7zM395 1h-35v35h8v-28h27v-7zM233 100v-25h-69v168l11 10l14 -10v-143h44zM344 1h-8v35h8v-35zM311 1h-28v35h31q7 0 7 -7v-4
q0 -5 -6 -6q6 -1 6 -6v-5q0 -7 -10 -7zM255 0h-5l21 45h5zM141 243v-168l-13 -9l-13 9v168h26zM233 0h-5l21 45h5zM214 36h6q2 0 3 -1v-11h-13v11q1 1 4 1zM210 14h13v-13h-12l-1 2v11zM55 75h-46v143l-9 11l9 14h37q44 0 44 -47q0 -24 -17 -33q21 -7 21 -40q0 -48 -39 -48z
M168 1h-9v35h31q9 0 9 -7v-8q0 -6 -9 -6h-22v-14zM149 30h-18v-29h-7v29h-16v6h41v-6zM104 30h-16v-29h-9v29h-16v6h41v-6zM18 1h-9v35h9v-13h26v13h7v-35h-7v15h-26v-15zM781 426l28 18l-60 361h-75l-61 -361l28 -18l28 18l14 82h56l12 -82zM1276 29v-21h29v21h-29z
M1084 114v91q0 15 -14 15q-15 0 -15 -15v-91q0 -15 15 -15q14 0 14 15zM1091 29v-21h28v21h-28zM1060 30h-19v-9h19q4 0 4 3v4q0 2 -4 2zM873 29v-21h27v21h-27zM794 30h-19v-7h19q4 0 4 2v3q0 2 -4 2zM794 16h-19v-8h19q4 0 4 2v4q0 2 -4 2zM599 178v25q0 13 -14 13h-15
v-52h15q14 0 14 14zM488 139l-10 65l-9 -65h19zM564 30h-19v-10h19q4 0 4 3v5q0 2 -4 2zM503 30l-8 -15h16zM310 30h-20v-7h20q4 0 4 2v3q0 2 -4 2zM310 16h-20v-8h20q4 0 4 2v4q0 2 -4 2zM36 218v-44h10q18 0 18 22t-18 22h-10zM186 30h-18v-9h18q4 0 4 3v4q0 2 -4 2z
M36 150v-50h10q20 0 20 24q0 26 -20 26h-10zM690 580l20 143l21 -143h-41z" />
    <glyph glyph-name="six" unicode="6" horiz-adv-x="1419" 
d="M1419 118q2 -44 -40 -44q-40 0 -43 47l10 9l14 -7q2 -27 18 -27q16 3 16 20q0 13 -20 33q-15 14 -29 29q-6 15 -6 25q0 42 39 42q37 0 40 -39l-24 -5q-1 22 -16 22q-13 0 -13 -19q0 -12 33 -45q21 -21 21 -41zM1266 75v143h-26v25h79v-25h-28v-143l-12 -9zM1385 0h-5
l21 45h5zM1334 1h-6v35h6l17 -21l17 21h6v-35h-8v24l-15 -20h-1l-16 20v-24zM603 760l110 240l106 -239l262 -30l-193 -175l53 -258l-227 130l-230 -130l54 255l-195 178zM1133 243h28l33 -113v113h26v-168h-27l-35 108v-108h-25v144l-9 11zM1269 10v18q0 8 9 8h26q9 0 9 -8
v-18q0 -9 -9 -9h-26q-9 0 -9 9zM1248 23v6h-23v-21h23v7l7 -1v-4q0 -9 -9 -9h-21q-9 0 -9 9v18q0 8 9 8h21q9 0 9 -8v-4zM1070 245q40 0 40 -40v-91q0 -40 -40 -40t-40 40v91q0 40 40 40zM1190 14h11q2 -2 2 -3v-7q0 -1 -2 -3h-10q-1 0 -1 2v11zM1179 30h-16v-29h-9v29h-16
v6h41v-6zM966 146v-71h-25v143l-8 12l8 13h72v-25h-47v-47h34v-25h-34zM1084 10v18q0 8 9 8h26q9 0 9 -8v-18q0 -9 -9 -9h-26q-9 0 -9 9zM1041 1h-8v35h31q9 0 9 -7v-8q0 -6 -9 -6h-23v-14zM906 100v-25h-68v168l12 10l13 -10v-143h43zM1011 26v4h-23v-7h22q9 0 9 -9v-4
q0 -9 -9 -9h-22q-9 0 -9 9l6 1v-3h26v7h-22q-9 0 -9 9v4q0 8 9 8h20q9 0 9 -7v-1zM956 26v3h-26v-21h26v7h-13v6h22v-11q0 -9 -9 -9h-25q-8 0 -8 9v18q0 8 8 8h25q9 0 9 -8zM820 75h-71v143l-9 12l9 13h71v-25h-46v-47h34v-25h-34v-46h46v-25zM864 10v18q0 8 9 8h27
q9 0 9 -8v-18q0 -9 -9 -9h-27q-9 0 -9 9zM855 1h-35v35h9v-28h26v-7zM686 73q-40 0 -40 40v91q0 41 40 41t40 -41v-19h-26v20q0 15 -14 15q-15 0 -15 -15v-91q0 -15 15 -15q14 0 14 15v32h-14l-10 12l10 13h40v-58q0 -40 -40 -40zM795 1h-29v35h32q7 0 7 -7v-4q0 -4 -5 -6
q6 -1 6 -6v-5q0 -7 -11 -7zM740 14h11v-13h-10q-2 0 -2 3v7q0 2 1 3zM545 243h39q40 0 40 -40v-24q0 -19 -14 -30l19 -74h-28l-15 64h-16v-64h-25v144l-9 11zM730 1h-35v35h9v-28h26v-7zM683 1h-38v35h38v-6h-29v-7h16v-7h-16v-8h29v-7zM491 114h-26l-6 -39l-14 -7l-12 7
l27 168h35l29 -168l-14 -7l-14 7zM623 26v3h-27v-21h27v7h-14v6h22v-11q0 -9 -8 -9h-25q-9 0 -9 9v18q0 8 9 8h25q8 0 8 -8zM545 1h-9v35h32q7 0 7 -7v-8q0 -7 -7 -7h-5l16 -13h-11l-15 13h-8v-13zM488 1h-9l20 35h9l20 -35h-9l-5 8h-23zM339 75v70l-34 98h28l18 -60l19 60
h28l-34 -98v-70h-25zM461 1h-7v15l-19 20h11l12 -13l12 13h10l-19 -18v-17zM319 100v-25h-69v168l11 10l14 -10v-143h44zM440 1h-36v35h9v-28h27v-7zM395 1h-35v35h8v-28h27v-7zM233 100v-25h-69v168l11 10l14 -10v-143h44zM344 1h-8v35h8v-35zM311 1h-28v35h31q7 0 7 -7v-4
q0 -5 -6 -6q6 -1 6 -6v-5q0 -7 -10 -7zM255 0h-5l21 45h5zM141 243v-168l-13 -9l-13 9v168h26zM233 0h-5l21 45h5zM214 36h6q2 0 3 -1v-11h-13v11q1 1 4 1zM210 14h13v-13h-12l-1 2v11zM55 75h-46v143l-9 11l9 14h37q44 0 44 -47q0 -24 -17 -33q21 -7 21 -40q0 -48 -39 -48z
M168 1h-9v35h31q9 0 9 -7v-8q0 -6 -9 -6h-22v-14zM149 30h-18v-29h-7v29h-16v6h41v-6zM104 30h-16v-29h-9v29h-16v6h41v-6zM18 1h-9v35h9v-13h26v13h7v-35h-7v15h-26v-15zM781 426l28 18l-60 361h-75l-61 -361l28 -18l28 18l14 82h56l12 -82zM1276 29v-21h29v21h-29z
M1084 114v91q0 15 -14 15q-15 0 -15 -15v-91q0 -15 15 -15q14 0 14 15zM1091 29v-21h28v21h-28zM1060 30h-19v-9h19q4 0 4 3v4q0 2 -4 2zM873 29v-21h27v21h-27zM794 30h-19v-7h19q4 0 4 2v3q0 2 -4 2zM794 16h-19v-8h19q4 0 4 2v4q0 2 -4 2zM599 178v25q0 13 -14 13h-15
v-52h15q14 0 14 14zM488 139l-10 65l-9 -65h19zM564 30h-19v-10h19q4 0 4 3v5q0 2 -4 2zM503 30l-8 -15h16zM310 30h-20v-7h20q4 0 4 2v3q0 2 -4 2zM310 16h-20v-8h20q4 0 4 2v4q0 2 -4 2zM36 218v-44h10q18 0 18 22t-18 22h-10zM186 30h-18v-9h18q4 0 4 3v4q0 2 -4 2z
M36 150v-50h10q20 0 20 24q0 26 -20 26h-10zM690 580l20 143l21 -143h-41z" />
    <glyph glyph-name="seven" unicode="7" horiz-adv-x="1419" 
d="M1419 118q2 -44 -40 -44q-40 0 -43 47l10 9l14 -7q2 -27 18 -27q16 3 16 20q0 13 -20 33q-15 14 -29 29q-6 15 -6 25q0 42 39 42q37 0 40 -39l-24 -5q-1 22 -16 22q-13 0 -13 -19q0 -12 33 -45q21 -21 21 -41zM1266 75v143h-26v25h79v-25h-28v-143l-12 -9zM1385 0h-5
l21 45h5zM1334 1h-6v35h6l17 -21l17 21h6v-35h-8v24l-15 -20h-1l-16 20v-24zM603 760l110 240l106 -239l262 -30l-193 -175l53 -258l-227 130l-230 -130l54 255l-195 178zM1133 243h28l33 -113v113h26v-168h-27l-35 108v-108h-25v144l-9 11zM1269 10v18q0 8 9 8h26q9 0 9 -8
v-18q0 -9 -9 -9h-26q-9 0 -9 9zM1248 23v6h-23v-21h23v7l7 -1v-4q0 -9 -9 -9h-21q-9 0 -9 9v18q0 8 9 8h21q9 0 9 -8v-4zM1070 245q40 0 40 -40v-91q0 -40 -40 -40t-40 40v91q0 40 40 40zM1190 14h11q2 -2 2 -3v-7q0 -1 -2 -3h-10q-1 0 -1 2v11zM1179 30h-16v-29h-9v29h-16
v6h41v-6zM966 146v-71h-25v143l-8 12l8 13h72v-25h-47v-47h34v-25h-34zM1084 10v18q0 8 9 8h26q9 0 9 -8v-18q0 -9 -9 -9h-26q-9 0 -9 9zM1041 1h-8v35h31q9 0 9 -7v-8q0 -6 -9 -6h-23v-14zM906 100v-25h-68v168l12 10l13 -10v-143h43zM1011 26v4h-23v-7h22q9 0 9 -9v-4
q0 -9 -9 -9h-22q-9 0 -9 9l6 1v-3h26v7h-22q-9 0 -9 9v4q0 8 9 8h20q9 0 9 -7v-1zM956 26v3h-26v-21h26v7h-13v6h22v-11q0 -9 -9 -9h-25q-8 0 -8 9v18q0 8 8 8h25q9 0 9 -8zM820 75h-71v143l-9 12l9 13h71v-25h-46v-47h34v-25h-34v-46h46v-25zM864 10v18q0 8 9 8h27
q9 0 9 -8v-18q0 -9 -9 -9h-27q-9 0 -9 9zM855 1h-35v35h9v-28h26v-7zM686 73q-40 0 -40 40v91q0 41 40 41t40 -41v-19h-26v20q0 15 -14 15q-15 0 -15 -15v-91q0 -15 15 -15q14 0 14 15v32h-14l-10 12l10 13h40v-58q0 -40 -40 -40zM795 1h-29v35h32q7 0 7 -7v-4q0 -4 -5 -6
q6 -1 6 -6v-5q0 -7 -11 -7zM740 14h11v-13h-10q-2 0 -2 3v7q0 2 1 3zM545 243h39q40 0 40 -40v-24q0 -19 -14 -30l19 -74h-28l-15 64h-16v-64h-25v144l-9 11zM730 1h-35v35h9v-28h26v-7zM683 1h-38v35h38v-6h-29v-7h16v-7h-16v-8h29v-7zM491 114h-26l-6 -39l-14 -7l-12 7
l27 168h35l29 -168l-14 -7l-14 7zM623 26v3h-27v-21h27v7h-14v6h22v-11q0 -9 -8 -9h-25q-9 0 -9 9v18q0 8 9 8h25q8 0 8 -8zM545 1h-9v35h32q7 0 7 -7v-8q0 -7 -7 -7h-5l16 -13h-11l-15 13h-8v-13zM488 1h-9l20 35h9l20 -35h-9l-5 8h-23zM339 75v70l-34 98h28l18 -60l19 60
h28l-34 -98v-70h-25zM461 1h-7v15l-19 20h11l12 -13l12 13h10l-19 -18v-17zM319 100v-25h-69v168l11 10l14 -10v-143h44zM440 1h-36v35h9v-28h27v-7zM395 1h-35v35h8v-28h27v-7zM233 100v-25h-69v168l11 10l14 -10v-143h44zM344 1h-8v35h8v-35zM311 1h-28v35h31q7 0 7 -7v-4
q0 -5 -6 -6q6 -1 6 -6v-5q0 -7 -10 -7zM255 0h-5l21 45h5zM141 243v-168l-13 -9l-13 9v168h26zM233 0h-5l21 45h5zM214 36h6q2 0 3 -1v-11h-13v11q1 1 4 1zM210 14h13v-13h-12l-1 2v11zM55 75h-46v143l-9 11l9 14h37q44 0 44 -47q0 -24 -17 -33q21 -7 21 -40q0 -48 -39 -48z
M168 1h-9v35h31q9 0 9 -7v-8q0 -6 -9 -6h-22v-14zM149 30h-18v-29h-7v29h-16v6h41v-6zM104 30h-16v-29h-9v29h-16v6h41v-6zM18 1h-9v35h9v-13h26v13h7v-35h-7v15h-26v-15zM781 426l28 18l-60 361h-75l-61 -361l28 -18l28 18l14 82h56l12 -82zM1276 29v-21h29v21h-29z
M1084 114v91q0 15 -14 15q-15 0 -15 -15v-91q0 -15 15 -15q14 0 14 15zM1091 29v-21h28v21h-28zM1060 30h-19v-9h19q4 0 4 3v4q0 2 -4 2zM873 29v-21h27v21h-27zM794 30h-19v-7h19q4 0 4 2v3q0 2 -4 2zM794 16h-19v-8h19q4 0 4 2v4q0 2 -4 2zM599 178v25q0 13 -14 13h-15
v-52h15q14 0 14 14zM488 139l-10 65l-9 -65h19zM564 30h-19v-10h19q4 0 4 3v5q0 2 -4 2zM503 30l-8 -15h16zM310 30h-20v-7h20q4 0 4 2v3q0 2 -4 2zM310 16h-20v-8h20q4 0 4 2v4q0 2 -4 2zM36 218v-44h10q18 0 18 22t-18 22h-10zM186 30h-18v-9h18q4 0 4 3v4q0 2 -4 2z
M36 150v-50h10q20 0 20 24q0 26 -20 26h-10zM690 580l20 143l21 -143h-41z" />
    <glyph glyph-name="eight" unicode="8" horiz-adv-x="1419" 
d="M1419 118q2 -44 -40 -44q-40 0 -43 47l10 9l14 -7q2 -27 18 -27q16 3 16 20q0 13 -20 33q-15 14 -29 29q-6 15 -6 25q0 42 39 42q37 0 40 -39l-24 -5q-1 22 -16 22q-13 0 -13 -19q0 -12 33 -45q21 -21 21 -41zM1266 75v143h-26v25h79v-25h-28v-143l-12 -9zM1385 0h-5
l21 45h5zM1334 1h-6v35h6l17 -21l17 21h6v-35h-8v24l-15 -20h-1l-16 20v-24zM603 760l110 240l106 -239l262 -30l-193 -175l53 -258l-227 130l-230 -130l54 255l-195 178zM1133 243h28l33 -113v113h26v-168h-27l-35 108v-108h-25v144l-9 11zM1269 10v18q0 8 9 8h26q9 0 9 -8
v-18q0 -9 -9 -9h-26q-9 0 -9 9zM1248 23v6h-23v-21h23v7l7 -1v-4q0 -9 -9 -9h-21q-9 0 -9 9v18q0 8 9 8h21q9 0 9 -8v-4zM1070 245q40 0 40 -40v-91q0 -40 -40 -40t-40 40v91q0 40 40 40zM1190 14h11q2 -2 2 -3v-7q0 -1 -2 -3h-10q-1 0 -1 2v11zM1179 30h-16v-29h-9v29h-16
v6h41v-6zM966 146v-71h-25v143l-8 12l8 13h72v-25h-47v-47h34v-25h-34zM1084 10v18q0 8 9 8h26q9 0 9 -8v-18q0 -9 -9 -9h-26q-9 0 -9 9zM1041 1h-8v35h31q9 0 9 -7v-8q0 -6 -9 -6h-23v-14zM906 100v-25h-68v168l12 10l13 -10v-143h43zM1011 26v4h-23v-7h22q9 0 9 -9v-4
q0 -9 -9 -9h-22q-9 0 -9 9l6 1v-3h26v7h-22q-9 0 -9 9v4q0 8 9 8h20q9 0 9 -7v-1zM956 26v3h-26v-21h26v7h-13v6h22v-11q0 -9 -9 -9h-25q-8 0 -8 9v18q0 8 8 8h25q9 0 9 -8zM820 75h-71v143l-9 12l9 13h71v-25h-46v-47h34v-25h-34v-46h46v-25zM864 10v18q0 8 9 8h27
q9 0 9 -8v-18q0 -9 -9 -9h-27q-9 0 -9 9zM855 1h-35v35h9v-28h26v-7zM686 73q-40 0 -40 40v91q0 41 40 41t40 -41v-19h-26v20q0 15 -14 15q-15 0 -15 -15v-91q0 -15 15 -15q14 0 14 15v32h-14l-10 12l10 13h40v-58q0 -40 -40 -40zM795 1h-29v35h32q7 0 7 -7v-4q0 -4 -5 -6
q6 -1 6 -6v-5q0 -7 -11 -7zM740 14h11v-13h-10q-2 0 -2 3v7q0 2 1 3zM545 243h39q40 0 40 -40v-24q0 -19 -14 -30l19 -74h-28l-15 64h-16v-64h-25v144l-9 11zM730 1h-35v35h9v-28h26v-7zM683 1h-38v35h38v-6h-29v-7h16v-7h-16v-8h29v-7zM491 114h-26l-6 -39l-14 -7l-12 7
l27 168h35l29 -168l-14 -7l-14 7zM623 26v3h-27v-21h27v7h-14v6h22v-11q0 -9 -8 -9h-25q-9 0 -9 9v18q0 8 9 8h25q8 0 8 -8zM545 1h-9v35h32q7 0 7 -7v-8q0 -7 -7 -7h-5l16 -13h-11l-15 13h-8v-13zM488 1h-9l20 35h9l20 -35h-9l-5 8h-23zM339 75v70l-34 98h28l18 -60l19 60
h28l-34 -98v-70h-25zM461 1h-7v15l-19 20h11l12 -13l12 13h10l-19 -18v-17zM319 100v-25h-69v168l11 10l14 -10v-143h44zM440 1h-36v35h9v-28h27v-7zM395 1h-35v35h8v-28h27v-7zM233 100v-25h-69v168l11 10l14 -10v-143h44zM344 1h-8v35h8v-35zM311 1h-28v35h31q7 0 7 -7v-4
q0 -5 -6 -6q6 -1 6 -6v-5q0 -7 -10 -7zM255 0h-5l21 45h5zM141 243v-168l-13 -9l-13 9v168h26zM233 0h-5l21 45h5zM214 36h6q2 0 3 -1v-11h-13v11q1 1 4 1zM210 14h13v-13h-12l-1 2v11zM55 75h-46v143l-9 11l9 14h37q44 0 44 -47q0 -24 -17 -33q21 -7 21 -40q0 -48 -39 -48z
M168 1h-9v35h31q9 0 9 -7v-8q0 -6 -9 -6h-22v-14zM149 30h-18v-29h-7v29h-16v6h41v-6zM104 30h-16v-29h-9v29h-16v6h41v-6zM18 1h-9v35h9v-13h26v13h7v-35h-7v15h-26v-15zM781 426l28 18l-60 361h-75l-61 -361l28 -18l28 18l14 82h56l12 -82zM1276 29v-21h29v21h-29z
M1084 114v91q0 15 -14 15q-15 0 -15 -15v-91q0 -15 15 -15q14 0 14 15zM1091 29v-21h28v21h-28zM1060 30h-19v-9h19q4 0 4 3v4q0 2 -4 2zM873 29v-21h27v21h-27zM794 30h-19v-7h19q4 0 4 2v3q0 2 -4 2zM794 16h-19v-8h19q4 0 4 2v4q0 2 -4 2zM599 178v25q0 13 -14 13h-15
v-52h15q14 0 14 14zM488 139l-10 65l-9 -65h19zM564 30h-19v-10h19q4 0 4 3v5q0 2 -4 2zM503 30l-8 -15h16zM310 30h-20v-7h20q4 0 4 2v3q0 2 -4 2zM310 16h-20v-8h20q4 0 4 2v4q0 2 -4 2zM36 218v-44h10q18 0 18 22t-18 22h-10zM186 30h-18v-9h18q4 0 4 3v4q0 2 -4 2z
M36 150v-50h10q20 0 20 24q0 26 -20 26h-10zM690 580l20 143l21 -143h-41z" />
    <glyph glyph-name="nine" unicode="9" horiz-adv-x="1419" 
d="M1419 118q2 -44 -40 -44q-40 0 -43 47l10 9l14 -7q2 -27 18 -27q16 3 16 20q0 13 -20 33q-15 14 -29 29q-6 15 -6 25q0 42 39 42q37 0 40 -39l-24 -5q-1 22 -16 22q-13 0 -13 -19q0 -12 33 -45q21 -21 21 -41zM1266 75v143h-26v25h79v-25h-28v-143l-12 -9zM1385 0h-5
l21 45h5zM1334 1h-6v35h6l17 -21l17 21h6v-35h-8v24l-15 -20h-1l-16 20v-24zM603 760l110 240l106 -239l262 -30l-193 -175l53 -258l-227 130l-230 -130l54 255l-195 178zM1133 243h28l33 -113v113h26v-168h-27l-35 108v-108h-25v144l-9 11zM1269 10v18q0 8 9 8h26q9 0 9 -8
v-18q0 -9 -9 -9h-26q-9 0 -9 9zM1248 23v6h-23v-21h23v7l7 -1v-4q0 -9 -9 -9h-21q-9 0 -9 9v18q0 8 9 8h21q9 0 9 -8v-4zM1070 245q40 0 40 -40v-91q0 -40 -40 -40t-40 40v91q0 40 40 40zM1190 14h11q2 -2 2 -3v-7q0 -1 -2 -3h-10q-1 0 -1 2v11zM1179 30h-16v-29h-9v29h-16
v6h41v-6zM966 146v-71h-25v143l-8 12l8 13h72v-25h-47v-47h34v-25h-34zM1084 10v18q0 8 9 8h26q9 0 9 -8v-18q0 -9 -9 -9h-26q-9 0 -9 9zM1041 1h-8v35h31q9 0 9 -7v-8q0 -6 -9 -6h-23v-14zM906 100v-25h-68v168l12 10l13 -10v-143h43zM1011 26v4h-23v-7h22q9 0 9 -9v-4
q0 -9 -9 -9h-22q-9 0 -9 9l6 1v-3h26v7h-22q-9 0 -9 9v4q0 8 9 8h20q9 0 9 -7v-1zM956 26v3h-26v-21h26v7h-13v6h22v-11q0 -9 -9 -9h-25q-8 0 -8 9v18q0 8 8 8h25q9 0 9 -8zM820 75h-71v143l-9 12l9 13h71v-25h-46v-47h34v-25h-34v-46h46v-25zM864 10v18q0 8 9 8h27
q9 0 9 -8v-18q0 -9 -9 -9h-27q-9 0 -9 9zM855 1h-35v35h9v-28h26v-7zM686 73q-40 0 -40 40v91q0 41 40 41t40 -41v-19h-26v20q0 15 -14 15q-15 0 -15 -15v-91q0 -15 15 -15q14 0 14 15v32h-14l-10 12l10 13h40v-58q0 -40 -40 -40zM795 1h-29v35h32q7 0 7 -7v-4q0 -4 -5 -6
q6 -1 6 -6v-5q0 -7 -11 -7zM740 14h11v-13h-10q-2 0 -2 3v7q0 2 1 3zM545 243h39q40 0 40 -40v-24q0 -19 -14 -30l19 -74h-28l-15 64h-16v-64h-25v144l-9 11zM730 1h-35v35h9v-28h26v-7zM683 1h-38v35h38v-6h-29v-7h16v-7h-16v-8h29v-7zM491 114h-26l-6 -39l-14 -7l-12 7
l27 168h35l29 -168l-14 -7l-14 7zM623 26v3h-27v-21h27v7h-14v6h22v-11q0 -9 -8 -9h-25q-9 0 -9 9v18q0 8 9 8h25q8 0 8 -8zM545 1h-9v35h32q7 0 7 -7v-8q0 -7 -7 -7h-5l16 -13h-11l-15 13h-8v-13zM488 1h-9l20 35h9l20 -35h-9l-5 8h-23zM339 75v70l-34 98h28l18 -60l19 60
h28l-34 -98v-70h-25zM461 1h-7v15l-19 20h11l12 -13l12 13h10l-19 -18v-17zM319 100v-25h-69v168l11 10l14 -10v-143h44zM440 1h-36v35h9v-28h27v-7zM395 1h-35v35h8v-28h27v-7zM233 100v-25h-69v168l11 10l14 -10v-143h44zM344 1h-8v35h8v-35zM311 1h-28v35h31q7 0 7 -7v-4
q0 -5 -6 -6q6 -1 6 -6v-5q0 -7 -10 -7zM255 0h-5l21 45h5zM141 243v-168l-13 -9l-13 9v168h26zM233 0h-5l21 45h5zM214 36h6q2 0 3 -1v-11h-13v11q1 1 4 1zM210 14h13v-13h-12l-1 2v11zM55 75h-46v143l-9 11l9 14h37q44 0 44 -47q0 -24 -17 -33q21 -7 21 -40q0 -48 -39 -48z
M168 1h-9v35h31q9 0 9 -7v-8q0 -6 -9 -6h-22v-14zM149 30h-18v-29h-7v29h-16v6h41v-6zM104 30h-16v-29h-9v29h-16v6h41v-6zM18 1h-9v35h9v-13h26v13h7v-35h-7v15h-26v-15zM781 426l28 18l-60 361h-75l-61 -361l28 -18l28 18l14 82h56l12 -82zM1276 29v-21h29v21h-29z
M1084 114v91q0 15 -14 15q-15 0 -15 -15v-91q0 -15 15 -15q14 0 14 15zM1091 29v-21h28v21h-28zM1060 30h-19v-9h19q4 0 4 3v4q0 2 -4 2zM873 29v-21h27v21h-27zM794 30h-19v-7h19q4 0 4 2v3q0 2 -4 2zM794 16h-19v-8h19q4 0 4 2v4q0 2 -4 2zM599 178v25q0 13 -14 13h-15
v-52h15q14 0 14 14zM488 139l-10 65l-9 -65h19zM564 30h-19v-10h19q4 0 4 3v5q0 2 -4 2zM503 30l-8 -15h16zM310 30h-20v-7h20q4 0 4 2v3q0 2 -4 2zM310 16h-20v-8h20q4 0 4 2v4q0 2 -4 2zM36 218v-44h10q18 0 18 22t-18 22h-10zM186 30h-18v-9h18q4 0 4 3v4q0 2 -4 2z
M36 150v-50h10q20 0 20 24q0 26 -20 26h-10zM690 580l20 143l21 -143h-41z" />
    <glyph glyph-name="colon" unicode=":" horiz-adv-x="129" 
d="M54 163q21 0 36.5 -15.5t15.5 -36.5q0 -22 -15.5 -37t-36.5 -15q-22 0 -37 15t-15 37q0 21 15 36.5t37 15.5zM54 383q21 0 36.5 -15.5t15.5 -36.5q0 -22 -15.5 -37t-36.5 -15q-22 0 -37 15t-15 37q0 21 15 36.5t37 15.5z" />
    <glyph glyph-name="semicolon" unicode=";" horiz-adv-x="155" 
d="M25 106v5q0 21 15 36.5t37 15.5q21 0 36.5 -15.5t15.5 -36.5q0 -10 -3 -19q-6 -21 -31 -56t-46 -52h-49q25 46 25 122zM74 383q21 0 36.5 -15.5t15.5 -36.5q0 -22 -15.5 -37t-36.5 -15q-22 0 -37 15t-15 37q0 21 15 36.5t37 15.5z" />
    <glyph glyph-name="less" unicode="&#x3c;" horiz-adv-x="406" 
d="M215 529h154q-171 -152 -218 -196q65 -61 221 -202q-1 0 -1 -1h-150q-116 106 -182 166q-40 38 -41 38q8 7 21 19t21 19q32 28 91 81.5t84 75.5z" />
    <glyph glyph-name="equal" unicode="=" horiz-adv-x="460" 
d="M0 137v90h422v-90h-422zM0 287v90h422v-90h-422z" />
    <glyph glyph-name="greater" unicode="&#x3e;" horiz-adv-x="406" 
d="M0 529h154q30 -26 87.5 -78.5t87.5 -78.5q8 -6 21.5 -18.5t21.5 -19.5q-8 -7 -22 -20t-20 -18l-182 -166h-149q-1 0 -1 1q65 61 221 202q-37 33 -219 196z" />
    <glyph glyph-name="question" unicode="?" horiz-adv-x="397" 
d="M240 71h-102v104h102v-104zM99 457l-101 15q10 70 64 116q56 46 124 46q79 0 135 -56t56 -134q0 -79 -56 -135q-36 -36 -84 -49v-50h-102v94v52h51q37 0 62 25q26 26 26 63q0 36 -26 62t-62 26q-33 0 -57 -21q-25 -23 -30 -54zM99 457l-101 15zM240 71h-102h102z" />
    <glyph glyph-name="at" unicode="@" horiz-adv-x="591" 
d="M551 272q-19 -68 -70 -121q-50 -50 -119 -72q-111 -34 -214 22q-102 56 -136 167t22 213q57 103 166 137q76 22 151 2q75 -19 128 -73q0 1 1 1q51 -51 56 -124q5 -67 -42 -117q-20 -20 -37 -29q-16 -10 -45 -20q-56 -20 -75 35q-5 16 -5 50v22l-3 17q-5 23 -19 31
q-12 7 -28 6l-10 -2q-24 -6 -40 -27q-16 -20 -21 -55v-19q5 -28 15 -40q11 -16 30 -16h12q12 2 16 5q9 4 19 14l48 -48q-14 -14 -36 -27q-21 -10 -42 -12q-12 -2 -23 0q-48 4 -78 41q-24 30 -29 77q-1 15 0 31q5 50 35 91q31 39 77 52l20 3q39 6 73 -17v-1q36 -23 47 -70
q3 -9 5 -27q1 -11 1 -29v-16q5 2 12.5 5.5t9.5 4.5q18 14 22 18q26 26 23 65q-3 43 -34 77v-1q-40 43 -100 58q-56 16 -114 -2q-84 -25 -126 -103t-17 -162q25 -82 103 -126q73 -41 162 -16q54 17 90 54q39 39 54 92q12 -4 34 -10t31 -9z" />
    <glyph glyph-name="A" unicode="A" 
d="M278 402l-51 -109h104zM442 69l-63 128h-198l-60 -128h-112l221 468l46 97l47 -96l231 -469h-112zM227 293l51 109z" />
    <glyph glyph-name="B" unicode="B" horiz-adv-x="377" 
d="M102 632h-102h102zM102 308h63q30 0 48 -20q20 -20 20 -48q0 -26 -20 -48q-20 -20 -48 -20h-63v136zM102 529h59q24 0 41 -17t17 -42q0 -26 -17 -41q-15 -17 -41 -17h-59v117zM102 632h-102v-563h102v1h63q71 0 121 50t50 120q0 71 -50 121l-4 3q40 46 40 106
q0 67 -47 114q-49 47 -114 47h-59v1z" />
    <glyph glyph-name="C" unicode="C" horiz-adv-x="579" 
d="M463 244l84 -57q-43 -63 -109 -97q-64 -34 -141 -34q-123 0 -210 87t-87 210t87 210t210 87q71 0 135 -32q63 -33 106 -91l-83 -60q-26 36 -69 59q-41 22 -89 22q-79 0 -137 -58t-58 -137q0 -80 58 -138q57 -57 137 -57q51 0 94 23t72 63zM547 187l-84 57z" />
    <glyph glyph-name="D" unicode="D" horiz-adv-x="495" 
d="M0 632h102h-102zM102 529h65q75 0 126 -53q53 -53 53 -126t-53 -126t-126 -53h-65v358zM102 632h-102v-563h71h96q117 0 199 82t82 199t-82 199t-199 82h-65v1z" />
    <glyph glyph-name="E" unicode="E" horiz-adv-x="343" 
d="M102 531v-132h152v-102h-152v-125h204v-103h-306v564h306v-102h-204zM102 399v132v-132z" />
    <glyph glyph-name="F" unicode="F" horiz-adv-x="326" 
d="M102 531v-132h152v-102h-152v-228h-102v564h306v-102h-204zM102 399v132v-132z" />
    <glyph glyph-name="G" unicode="G" horiz-adv-x="626" 
d="M287 254v102h310v-1q0 -128 -82 -210q-89 -89 -216 -89q-126 0 -210 87q-87 89 -87 210t87 210q84 87 210 87q74 0 135 -32q67 -34 106 -91l-83 -60q-26 36 -69 59q-41 22 -89 22q-81 0 -137 -58q-57 -57 -57 -137q0 -79 57 -138q57 -57 137 -57q84 0 143 59q14 14 28 35
zM287 254v102v-102z" />
    <glyph glyph-name="H" unicode="H" horiz-adv-x="418" 
d="M5 632h103h-103zM108 632h-103v-563h103v228h174v-228h102v563h-102v-233h-174v233z" />
    <glyph glyph-name="I" unicode="I" horiz-adv-x="137" 
d="M0 632h102h-102zM102 632h-102v-563h102v563z" />
    <glyph glyph-name="J" unicode="J" horiz-adv-x="421" 
d="M291 632h102h-102zM393 632h-102v-205v-111v-14q0 -36 -2 -48q0 -11 -4 -20q-1 -5 -8 -17q-14 -23 -35 -35t-47 -12q-40 0 -68 28q-29 27 -29 68h-102q0 -84 58 -140q59 -59 141 -59q50 0 97 26q45 25 73 71q12 22 17 39q6 18 9 38q2 15 2 61v14v111v205z" />
    <glyph glyph-name="K" unicode="K" horiz-adv-x="422" 
d="M0 627h102h-102zM102 627h-102v-558h102v160l20 28l145 -188h129l-212 276l198 282h-125l-155 -220v220z" />
    <glyph glyph-name="L" unicode="L" horiz-adv-x="311" 
d="M102 632h-102h102zM102 632h-102v-563h102v1h188v103h-188v459z" />
    <glyph glyph-name="M" unicode="M" horiz-adv-x="770" 
d="M108 69h-108l159 449l41 116l53 -110l119 -247l120 247l53 110l41 -116l159 -449h-108l-107 300l-158 -300l-158 300zM108 69h-108h108z" />
    <glyph glyph-name="N" unicode="N" horiz-adv-x="439" 
d="M300 631h102h-102zM402 631h-102v-310l-211 217l-89 93v-125v-434h102v309l211 -217l89 -93v125v435z" />
    <glyph glyph-name="O" unicode="O" horiz-adv-x="625" 
d="M297 650q123 0 210 -87t87 -210t-87 -210t-210 -87t-210 87t-87 210t87 210t210 87zM435 490q-58 58 -138 58q-79 0 -137 -58t-58 -137q0 -80 58 -138q57 -57 137 -57q81 0 138 57t57 138q0 80 -57 137z" />
    <glyph glyph-name="P" unicode="P" horiz-adv-x="357" 
d="M0 632h102h-102zM102 529h48q35 0 59 -24q24 -26 24 -59q0 -35 -24 -59t-59 -24h-48v166zM102 632h-102v-563h102v191h48q76 0 131 55t55 131q0 73 -55 131q-52 54 -131 54h-48v1z" />
    <glyph glyph-name="Q" unicode="Q" horiz-adv-x="620" 
d="M297 650q123 0 210 -87t87 -210q0 -97 -53 -170q24 -11 52 -11v-102q-71 0 -127 38q-76 -52 -169 -52q-123 0 -210 87t-87 210t87 210t210 87zM290 186l1 103q101 -1 167 -45q34 50 34 109q0 80 -57 137q-56 58 -138 58q-79 0 -137 -58t-58 -137q0 -80 58 -138
q57 -57 137 -57q41 0 74 15q-33 13 -81 13z" />
    <glyph glyph-name="R" unicode="R" horiz-adv-x="371" 
d="M226 277l124 -208h-119l-114 191h-15v-191h-102v563h102v-1h48q79 0 131 -54q55 -58 55 -131q0 -79 -55 -131q-24 -24 -55 -38zM102 529v-166h48q35 0 59 24t24 59q0 34 -24 59q-24 24 -59 24h-48z" />
    <glyph glyph-name="S" unicode="S" horiz-adv-x="386" 
d="M340 544l-90 -49q-9 15 -29 27q-25 11 -46 8q-19 -3 -33 -17q-14 -13 -15 -33q-2 -15 4 -25q5 -11 18 -23q9 -6 22 -12q17 -6 31 -10q35 -10 42 -13q26 -10 47 -28q35 -27 51 -64q17 -38 14 -79q-6 -59 -46 -102q-39 -43 -100 -50q-58 -8 -110 17q-55 26 -80 75
q-6 11 -13 30q-4 11 -7 33l101 14q1 -5 4 -15t5 -13q14 -23 34 -32q27 -13 53 -8q23 4 39 20q15 15 18 39q0 18 -5 29q-8 18 -22 26q-5 6 -21 13q-17 6 -31 10q-17 3 -42 13q-20 7 -48 28q-30 25 -47 60q-17 38 -14 75q5 53 44 96q40 40 94 47q53 8 103 -16q47 -23 75 -71z
M340 544l-90 -49z" />
    <glyph glyph-name="T" unicode="T" horiz-adv-x="349" 
d="M0 632v-102v102zM0 632v-102h106v-461h102v461h110v102h-318z" />
    <glyph glyph-name="U" unicode="U" horiz-adv-x="432" 
d="M108 632h-102h102zM108 632h-102v-209v-94q0 -15 -1 -23v-14v-15t0.5 -13.5t1 -15.5t1.5 -14t2.5 -15.5t3.5 -14t4.5 -16t6.5 -14.5q26 -53 73 -83q47 -31 106 -31q54 0 98 26q44 25 73 72q28 48 28 142v11v113v208h-103v-208v-113v-11q0 -69 -13 -90q-14 -23 -36 -35
q-22 -13 -47 -13q-28 0 -50 15q-24 15 -36 41q-10 21 -10 87v24v94v209z" />
    <glyph glyph-name="V" unicode="V" horiz-adv-x="552" 
d="M0 627h112h-112zM112 627h-112l221 -461l47 -97l46 97l220 461h-112l-154 -324z" />
    <glyph glyph-name="W" unicode="W" horiz-adv-x="786" 
d="M656 631h108l-169 -450l-41 -110l-54 105l-119 233l-119 -233l-54 -105l-41 110l-167 450h108l115 -309l112 219l46 91l46 -91l112 -219zM764 631h-108h108z" />
    <glyph glyph-name="X" unicode="X" horiz-adv-x="507" 
d="M9 627h121h-121zM130 627h-121l170 -272l-179 -286h121l118 190l118 -190h121l-179 286l170 272h-121l-109 -175z" />
    <glyph glyph-name="Y" unicode="Y" horiz-adv-x="456" 
d="M272 276l165 351zM272 276l165 351h-113l-105 -223l-106 223h-113l169 -356v-202h103v207z" />
    <glyph glyph-name="Z" unicode="Z" horiz-adv-x="460" 
d="M29 632v-102v102zM29 632v-102h211l-246 -460h116h232h42v102h-219l245 460h-115h-227h-39z" />
    <glyph glyph-name="bracketleft" unicode="[" horiz-adv-x="157" 
d="M135 105v-103q-54 0 -92 38t-38 93v504q0 54 38 92q39 39 92 39v-103q-11 0 -19 -8q-9 -9 -9 -20v-504q0 -11 9 -20q8 -8 19 -8z" />
    <glyph glyph-name="backslash" unicode="\" horiz-adv-x="235" 
d="M54 721h-67h67zM-13 721h67l186 -698l-67 -1z" />
    <glyph glyph-name="bracketright" unicode="]" horiz-adv-x="160" 
d="M22 2v103q12 0 20 8t8 20v504q0 12 -8 20t-20 8v103q53 0 92 -39t39 -92v-504q0 -54 -39 -93q-38 -38 -92 -38z" />
    <glyph glyph-name="asciicircum" unicode="^" horiz-adv-x="273" 
d="M17 521l104 42zM121 563l-104 -42l-17 42l121 77v-1l1 1l120 -77l-17 -42z" />
    <glyph glyph-name="underscore" unicode="_" horiz-adv-x="460" 
d="M0 87v90h422v-90h-422z" />
    <glyph glyph-name="grave" unicode="`" horiz-adv-x="204" 
d="M33 642l-33 -73zM0 569l33 73l146 -84l-21 -47z" />
    <glyph glyph-name="a" unicode="a" 
d="M278 402l-51 -109h104zM442 69l-63 128h-198l-60 -128h-112l221 468l46 97l47 -96l231 -469h-112zM227 293l51 109z" />
    <glyph glyph-name="b" unicode="b" horiz-adv-x="377" 
d="M102 632h-102h102zM102 308h63q30 0 48 -20q20 -20 20 -48q0 -26 -20 -48q-20 -20 -48 -20h-63v136zM102 529h59q24 0 41 -17t17 -42q0 -26 -17 -41q-15 -17 -41 -17h-59v117zM102 632h-102v-563h102v1h63q71 0 121 50t50 120q0 71 -50 121l-4 3q40 46 40 106
q0 67 -47 114q-49 47 -114 47h-59v1z" />
    <glyph glyph-name="c" unicode="c" horiz-adv-x="579" 
d="M463 244l84 -57q-43 -63 -109 -97q-64 -34 -141 -34q-123 0 -210 87t-87 210t87 210t210 87q71 0 135 -32q63 -33 106 -91l-83 -60q-26 36 -69 59q-41 22 -89 22q-79 0 -137 -58t-58 -137q0 -80 58 -138q57 -57 137 -57q51 0 94 23t72 63zM547 187l-84 57z" />
    <glyph glyph-name="d" unicode="d" horiz-adv-x="495" 
d="M0 632h102h-102zM102 529h65q75 0 126 -53q53 -53 53 -126t-53 -126t-126 -53h-65v358zM102 632h-102v-563h71h96q117 0 199 82t82 199t-82 199t-199 82h-65v1z" />
    <glyph glyph-name="e" unicode="e" horiz-adv-x="343" 
d="M102 531v-132h152v-102h-152v-125h204v-103h-306v564h306v-102h-204zM102 399v132v-132z" />
    <glyph glyph-name="f" unicode="f" horiz-adv-x="326" 
d="M102 531v-132h152v-102h-152v-228h-102v564h306v-102h-204zM102 399v132v-132z" />
    <glyph glyph-name="g" unicode="g" horiz-adv-x="626" 
d="M287 254v102h310v-1q0 -128 -82 -210q-89 -89 -216 -89q-126 0 -210 87q-87 89 -87 210t87 210q84 87 210 87q74 0 135 -32q67 -34 106 -91l-83 -60q-26 36 -69 59q-41 22 -89 22q-81 0 -137 -58q-57 -57 -57 -137q0 -79 57 -138q57 -57 137 -57q84 0 143 59q14 14 28 35
zM287 254v102v-102z" />
    <glyph glyph-name="h" unicode="h" horiz-adv-x="418" 
d="M5 632h103h-103zM108 632h-103v-563h103v228h174v-228h102v563h-102v-233h-174v233z" />
    <glyph glyph-name="i" unicode="i" horiz-adv-x="137" 
d="M0 632h102h-102zM102 632h-102v-563h102v563z" />
    <glyph glyph-name="j" unicode="j" horiz-adv-x="421" 
d="M291 632h102h-102zM393 632h-102v-205v-111v-14q0 -36 -2 -48q0 -11 -4 -20q-1 -5 -8 -17q-14 -23 -35 -35t-47 -12q-40 0 -68 28q-29 27 -29 68h-102q0 -84 58 -140q59 -59 141 -59q50 0 97 26q45 25 73 71q12 22 17 39q6 18 9 38q2 15 2 61v14v111v205z" />
    <glyph glyph-name="k" unicode="k" horiz-adv-x="422" 
d="M0 627h102h-102zM102 627h-102v-558h102v160l20 28l145 -188h129l-212 276l198 282h-125l-155 -220v220z" />
    <glyph glyph-name="l" unicode="l" horiz-adv-x="311" 
d="M102 632h-102h102zM102 632h-102v-563h102v1h188v103h-188v459z" />
    <glyph glyph-name="m" unicode="m" horiz-adv-x="770" 
d="M108 69h-108l159 449l41 116l53 -110l119 -247l120 247l53 110l41 -116l159 -449h-108l-107 300l-158 -300l-158 300zM108 69h-108h108z" />
    <glyph glyph-name="n" unicode="n" horiz-adv-x="439" 
d="M300 631h102h-102zM402 631h-102v-310l-211 217l-89 93v-125v-434h102v309l211 -217l89 -93v125v435z" />
    <glyph glyph-name="o" unicode="o" horiz-adv-x="625" 
d="M297 650q123 0 210 -87t87 -210t-87 -210t-210 -87t-210 87t-87 210t87 210t210 87zM435 490q-58 58 -138 58q-79 0 -137 -58t-58 -137q0 -80 58 -138q57 -57 137 -57q81 0 138 57t57 138q0 80 -57 137z" />
    <glyph glyph-name="p" unicode="p" horiz-adv-x="357" 
d="M0 632h102h-102zM102 529h48q35 0 59 -24q24 -26 24 -59q0 -35 -24 -59t-59 -24h-48v166zM102 632h-102v-563h102v191h48q76 0 131 55t55 131q0 73 -55 131q-52 54 -131 54h-48v1z" />
    <glyph glyph-name="q" unicode="q" horiz-adv-x="620" 
d="M297 650q123 0 210 -87t87 -210q0 -97 -53 -170q24 -11 52 -11v-102q-71 0 -127 38q-76 -52 -169 -52q-123 0 -210 87t-87 210t87 210t210 87zM290 186l1 103q101 -1 167 -45q34 50 34 109q0 80 -57 137q-56 58 -138 58q-79 0 -137 -58t-58 -137q0 -80 58 -138
q57 -57 137 -57q41 0 74 15q-33 13 -81 13z" />
    <glyph glyph-name="r" unicode="r" horiz-adv-x="371" 
d="M226 277l124 -208h-119l-114 191h-15v-191h-102v563h102v-1h48q79 0 131 -54q55 -58 55 -131q0 -79 -55 -131q-24 -24 -55 -38zM102 529v-166h48q35 0 59 24t24 59q0 34 -24 59q-24 24 -59 24h-48z" />
    <glyph glyph-name="s" unicode="s" horiz-adv-x="386" 
d="M340 544l-90 -49q-9 15 -29 27q-25 11 -46 8q-19 -3 -33 -17q-14 -13 -15 -33q-2 -15 4 -25q5 -11 18 -23q9 -6 22 -12q17 -6 31 -10q35 -10 42 -13q26 -10 47 -28q35 -27 51 -64q17 -38 14 -79q-6 -59 -46 -102q-39 -43 -100 -50q-58 -8 -110 17q-55 26 -80 75
q-6 11 -13 30q-4 11 -7 33l101 14q1 -5 4 -15t5 -13q14 -23 34 -32q27 -13 53 -8q23 4 39 20q15 15 18 39q0 18 -5 29q-8 18 -22 26q-5 6 -21 13q-17 6 -31 10q-17 3 -42 13q-20 7 -48 28q-30 25 -47 60q-17 38 -14 75q5 53 44 96q40 40 94 47q53 8 103 -16q47 -23 75 -71z
M340 544l-90 -49z" />
    <glyph glyph-name="t" unicode="t" horiz-adv-x="349" 
d="M0 632v-102v102zM0 632v-102h106v-461h102v461h110v102h-318z" />
    <glyph glyph-name="u" unicode="u" horiz-adv-x="432" 
d="M108 632h-102h102zM108 632h-102v-209v-94q0 -15 -1 -23v-14v-15t0.5 -13.5t1 -15.5t1.5 -14t2.5 -15.5t3.5 -14t4.5 -16t6.5 -14.5q26 -53 73 -83q47 -31 106 -31q54 0 98 26q44 25 73 72q28 48 28 142v11v113v208h-103v-208v-113v-11q0 -69 -13 -90q-14 -23 -36 -35
q-22 -13 -47 -13q-28 0 -50 15q-24 15 -36 41q-10 21 -10 87v24v94v209z" />
    <glyph glyph-name="v" unicode="v" horiz-adv-x="552" 
d="M0 627h112h-112zM112 627h-112l221 -461l47 -97l46 97l220 461h-112l-154 -324z" />
    <glyph glyph-name="w" unicode="w" horiz-adv-x="786" 
d="M656 631h108l-169 -450l-41 -110l-54 105l-119 233l-119 -233l-54 -105l-41 110l-167 450h108l115 -309l112 219l46 91l46 -91l112 -219zM764 631h-108h108z" />
    <glyph glyph-name="x" unicode="x" horiz-adv-x="495" 
d="M9 627h121h-121zM130 627h-121l170 -272l-179 -286h121l118 190l118 -190h121l-179 286l170 272h-121l-109 -175z" />
    <glyph glyph-name="y" unicode="y" horiz-adv-x="456" 
d="M272 276l165 351zM272 276l165 351h-113l-105 -223l-106 223h-113l169 -356v-202h103v207z" />
    <glyph glyph-name="z" unicode="z" horiz-adv-x="460" 
d="M29 632v-102v102zM29 632v-102h211l-246 -460h116h232h42v102h-219l245 460h-115h-227h-39z" />
    <glyph glyph-name="braceleft" unicode="{" horiz-adv-x="229" 
d="M181 80v-103q-52 0 -92 38q-38 38 -38 93v172l-32 49q-13 21 -18 28q4 5 9.5 14.5t7.5 13.5l33 50v177q0 56 38 92q39 39 92 39v-103q-9 0 -20 -8q-8 -8 -8 -20v-192v-15l-8 -12l-23 -36l23 -34l8 -13v-15v-187q0 -12 8 -20q11 -8 20 -8z" />
    <glyph glyph-name="braceright" unicode="}" horiz-adv-x="194" 
d="M0 -23v103q12 0 20 8t8 20v187v15l9 13q19 30 22 34l-23 36l-8 12v15v192q0 12 -8 20t-20 8v103q53 0 92 -39t39 -92v-177l32 -50q17 -27 18 -28q-5 -7 -18 -28l-32 -49v-172q0 -54 -39 -93q-38 -38 -92 -38z" />
    <glyph glyph-name="asciitilde" unicode="~" horiz-adv-x="289" 
d="M62 481l-46 50q30 28 56.5 35t40 2.5t38.5 -17.5q11 -5 16 -7t19 3.5t30 22.5l49 -48q-34 -34 -63 -44.5t-44 -5.5t-40 19q-28 18 -56 -10zM62 481l-46 50z" />
    <glyph glyph-name="cent" unicode="&#xa2;" horiz-adv-x="311" 
d="M216 424l65 -48q-24 -31 -56 -46q-33 -16 -70 -16h-2l-3 -24h-53l4 34q-32 12 -56 36q-45 45 -45 110q0 64 45 109q37 37 90 45l4 33h53l-4 -35q23 -5 39 -14q35 -18 56 -50l-67 -45q-10 15 -27 24q-1 1 -10 4l-17 -146q15 2 28 8q15 7 26 21zM111 410l14 128
q-14 -7 -23 -16q-22 -25 -22 -52q0 -28 22 -53zM281 376l-65 48z" />
    <glyph glyph-name="dieresis" unicode="&#xa8;" horiz-adv-x="266" 
d="M196 649q22 0 37 -15t15 -37t-15 -37t-37 -15t-37 15t-15 37t15 37t37 15zM54 653q21 0 36.5 -15.5t15.5 -36.5q0 -22 -15.5 -37t-36.5 -15q-22 0 -37 15t-15 37q0 21 15 36.5t37 15.5z" />
    <glyph glyph-name="degree" unicode="&#xb0;" horiz-adv-x="221" 
d="M98 645q41 0 70 -29t29 -69q0 -41 -29 -70t-70 -29q-40 0 -69 29t-29 70q0 40 29 69t69 29zM119 568q-9 9 -21 9q-10 0 -21 -9q-9 -10 -9 -21q0 -12 9 -21t21 -9q14 0 21 9q9 8 9 21q0 12 -9 21z" />
    <glyph glyph-name="acute" unicode="&#xb4;" horiz-adv-x="267" 
d="M146 642l33 -73zM179 569l-33 73l-146 -84l21 -47z" />
    <glyph glyph-name="ordmasculine" unicode="&#xba;" horiz-adv-x="221" 
d="M98 645q41 0 70 -29t29 -69q0 -41 -29 -70t-70 -29q-40 0 -69 29t-29 70q0 40 29 69t69 29zM119 568q-9 9 -21 9q-10 0 -21 -9q-9 -10 -9 -21q0 -12 9 -21t21 -9q14 0 21 9q9 8 9 21q0 12 -9 21z" />
    <glyph glyph-name="Agrave" unicode="&#xc0;" 
d="M167 816l-33 -73zM134 743l33 73l145 -85l-21 -46zM278 402l-51 -109zM442 69l-63 128h-198l-60 -128h-112l221 468l46 97l47 -96l231 -469h-112zM278 402l-51 -109h104z" />
    <glyph glyph-name="Aacute" unicode="&#xc1;" 
d="M388 805l33 -72zM421 733l-33 72l-145 -84l20 -47zM278 402l-51 -109zM379 197l63 -128h112l-231 469l-47 96l-46 -97l-221 -468h112l60 128h198zM227 293l51 109l53 -109h-104z" />
    <glyph glyph-name="Acircumflex" unicode="&#xc2;" 
d="M165 637l104 42zM269 679l-104 -42l-17 42l121 76v-1l1 1l121 -76l-18 -42zM278 402l-51 -109zM442 69l-63 128h-198l-60 -128h-112l221 468l46 97l47 -96l231 -469h-112zM278 402l-51 -109h104z" />
    <glyph glyph-name="Atilde" unicode="&#xc3;" 
d="M194 662l-46 51q23 21 42.5 31t37.5 8t27.5 -6t27.5 -13q10 -6 16.5 -7.5t20 4t29.5 21.5l48 -47q-34 -34 -62.5 -44t-44 -5.5t-40.5 18.5q-7 8 -22 7.5t-34 -18.5zM194 662l-46 51zM278 402l-51 -109h104zM442 69l-63 128h-198l-60 -128h-112l221 468l46 97l47 -96
l231 -469h-112zM227 293l51 109z" />
    <glyph glyph-name="Adieresis" unicode="&#xc4;" 
d="M278 402l-51 -109h104zM442 69l-63 128h-198l-60 -128h-112l221 468l46 97l47 -96l231 -469h-112zM227 293l51 109zM345 732q22 0 37 -15t15 -37t-15 -37t-37 -15t-37 15t-15 37t15 37t37 15zM203 736q22 0 37 -15.5t15 -36.5q0 -22 -15 -37t-37 -15t-37 15t-15 37
q0 21 15 36.5t37 15.5z" />
    <glyph glyph-name="Aring" unicode="&#xc5;" 
d="M278 402l-51 -109h104zM442 69l-63 128h-198l-60 -128h-112l221 468l46 97l47 -96l231 -469h-112zM227 293l51 109zM279 821q40 0 69 -29q29 -27 29 -69t-29 -69q-29 -29 -69 -29q-41 0 -70 29t-29 69t29 69t70 29zM300 744q-9 9 -21 9q-13 0 -21 -9q-9 -8 -9 -21t9 -21
q8 -9 21 -9q12 0 21 9t9 21t-9 21z" />
    <glyph glyph-name="AE" unicode="&#xc6;" horiz-adv-x="744" 
d="M517 556v-132h152v-102h-152v-125h204v-103h-306v136h-184l-102 -136h-138l374 498l50 66h306v-102h-204zM309 332h106v136zM517 424v132v-132z" />
    <glyph glyph-name="Ccedilla" unicode="&#xc7;" horiz-adv-x="579" 
d="M463 244l84 -57q-43 -63 -109 -97q-64 -34 -141 -34q-123 0 -210 87t-87 210t87 210t210 87q71 0 135 -32q63 -33 106 -91l-83 -60q-26 36 -69 59q-41 22 -89 22q-79 0 -137 -58t-58 -137q0 -80 58 -138q57 -57 137 -57q51 0 94 23t72 63zM547 187l-84 57zM255 70l68 1
q0 -8 0.5 -22.5t0.5 -20.5q1 -1 4 -2q28 -8 45 -28q19 -22 19 -50q0 -33 -22 -56q-22 -22 -53 -27q-6 -2 -27 -2q-9 0 -25 2q-20 2 -30 5q-17 4 -27 9l34 60q2 -1 9 -3l22 -4q3 0 9 -0.5t9 -0.5q11 0 15 1q10 1 14 7q4 3 4 8q0 4 -3 7q-4 4 -12 7l-10 2h-10l-41 -1l6 41
q1 5 1 25v42zM255 70l68 1z" />
    <glyph glyph-name="Egrave" unicode="&#xc8;" horiz-adv-x="343" 
d="M69 783l-33 -73zM36 710l33 73l146 -85l-21 -46zM102 531v-132v132zM102 531v-132h152v-102h-152v-125h204v-103h-306v564h306v-102h-204z" />
    <glyph glyph-name="Eacute" unicode="&#xc9;" horiz-adv-x="343" 
d="M265 794l33 -72zM298 722l-33 72l-146 -84l21 -47zM102 531v-132v132zM102 399v132h204v102h-306v-564h306v103h-204v125h152v102h-152z" />
    <glyph glyph-name="Ecircumflex" unicode="&#xca;" horiz-adv-x="343" 
d="M47 651l104 42zM151 693l-104 -42l-17 42l121 77v-2v2l121 -77l-17 -42zM102 531v-132v132zM102 531v-132h152v-102h-152v-125h204v-103h-306v564h306v-102h-204z" />
    <glyph glyph-name="Edieresis" unicode="&#xcb;" horiz-adv-x="343" 
d="M102 531v-132h152v-102h-152v-125h204v-103h-306v564h306v-102h-204zM102 399v132v-132zM228 759q22 0 37 -15.5t15 -37.5q0 -21 -15 -36.5t-37 -15.5t-37 15.5t-15 36.5q0 22 15 37.5t37 15.5zM86 762q22 0 37 -15t15 -37t-15 -37t-37 -15t-37 15t-15 37t15 37t37 15z
" />
    <glyph glyph-name="Igrave" unicode="&#xcc;" horiz-adv-x="137" 
d="M-30 794l-33 -73zM-63 721l33 73l146 -85l-21 -46zM0 632h102h-102zM0 632h102v-563h-102v563z" />
    <glyph glyph-name="Iacute" unicode="&#xcd;" horiz-adv-x="137" 
d="M157 783l33 -72zM190 711l-33 72l-146 -84l21 -47zM0 632h102h-102zM102 632h-102v-563h102v563z" />
    <glyph glyph-name="Icircumflex" unicode="&#xce;" horiz-adv-x="137" 
d="M-52 651l104 42zM52 693l-104 -42l-17 42l120 77l1 -1v1l121 -77l-17 -42zM0 632h102h-102zM0 632h102v-563h-102v563z" />
    <glyph glyph-name="Idieresis" unicode="&#xcf;" horiz-adv-x="137" 
d="M0 632h102v-563h-102v563zM102 632h-102h102zM127 761q22 0 37 -15t15 -37t-15 -37t-37 -15t-37 15t-15 37t15 37t37 15zM-15 765q21 0 36.5 -15.5t15.5 -36.5q0 -22 -15.5 -37t-36.5 -15q-22 0 -37 15t-15 37q0 21 15 36.5t37 15.5z" />
    <glyph glyph-name="Ntilde" unicode="&#xd1;" horiz-adv-x="439" 
d="M300 631h102v-435v-125l-89 93l-211 217v-309h-102v434v125l89 -93l211 -217v310zM402 631h-102h102zM116 665l-46 51q23 21 42.5 31t37.5 8t27.5 -6t27.5 -13q10 -6 16.5 -7.5t20 4t29.5 21.5l48 -47q-34 -34 -62.5 -44t-44 -5.5t-40.5 18.5q-7 8 -22 7.5t-34 -18.5z
M116 665l-46 51z" />
    <glyph glyph-name="Ograve" unicode="&#xd2;" horiz-adv-x="625" 
d="M199 823l-33 -73zM166 750l33 73l146 -85l-21 -46zM435 490q-58 58 -138 58q-79 0 -137 -58t-58 -137q0 -80 58 -138q57 -57 137 -57q81 0 138 57t57 138q0 80 -57 137zM297 650q123 0 210 -87t87 -210t-87 -210t-210 -87t-210 87t-87 210t87 210t210 87z" />
    <glyph glyph-name="Oacute" unicode="&#xd3;" horiz-adv-x="625" 
d="M392 808l33 -72zM425 736l-33 72l-146 -84l21 -47zM435 490q57 -57 57 -137q0 -81 -57 -138t-138 -57q-80 0 -137 57q-58 58 -58 138q0 79 58 137t137 58q80 0 138 -58zM297 650q-123 0 -210 -87t-87 -210t87 -210t210 -87t210 87t87 210t-87 210t-210 87z" />
    <glyph glyph-name="Ocircumflex" unicode="&#xd4;" horiz-adv-x="625" 
d="M191 674l104 41zM295 715l-104 -41l-17 42l121 76v-1l1 1l120 -76l-17 -42zM435 490q-58 58 -138 58q-79 0 -137 -58t-58 -137q0 -80 58 -138q57 -57 137 -57q81 0 138 57t57 138q0 80 -57 137zM297 650q123 0 210 -87t87 -210t-87 -210t-210 -87t-210 87t-87 210t87 210
t210 87z" />
    <glyph glyph-name="Otilde" unicode="&#xd5;" horiz-adv-x="625" 
d="M297 650q123 0 210 -87t87 -210t-87 -210t-210 -87t-210 87t-87 210t87 210t210 87zM435 490q-58 58 -138 58q-79 0 -137 -58t-58 -137q0 -80 58 -138q57 -57 137 -57q81 0 138 57t57 138q0 80 -57 137zM365 777q22 0 37 -15t15 -37q0 -21 -15 -36.5t-37 -15.5t-37 15.5
t-15 36.5q0 22 15 37t37 15zM223 781q22 0 37 -15t15 -37t-15 -37t-37 -15t-37 15t-15 37t15 37t37 15z" />
    <glyph glyph-name="Odieresis" unicode="&#xd6;" horiz-adv-x="625" 
d="M297 650q123 0 210 -87t87 -210t-87 -210t-210 -87t-210 87t-87 210t87 210t210 87zM435 490q-58 58 -138 58q-79 0 -137 -58t-58 -137q0 -80 58 -138q57 -57 137 -57q81 0 138 57t57 138q0 80 -57 137zM368 770q22 0 37 -15t15 -37t-15 -37t-37 -15t-37 15t-15 37t15 37
t37 15zM226 774q22 0 37 -15.5t15 -36.5q0 -22 -15 -37.5t-37 -15.5t-37 15.5t-15 37.5q0 21 15 36.5t37 15.5z" />
    <glyph glyph-name="Oslash" unicode="&#xd8;" horiz-adv-x="626" 
d="M211 203l98 369q-2 0 -6 0.5t-6 0.5q-79 0 -137 -58q-57 -57 -57 -137q0 -81 57 -138q20 -20 51 -37zM372 558l-99 -373q16 -2 24 -2q81 0 138 57q57 59 57 138q0 80 -57 137q-30 30 -63 43zM297 675q13 0 39 -2l16 61h67l-20 -77q61 -23 108 -69q88 -88 88 -210
q0 -119 -88 -210q-85 -87 -210 -87q-29 0 -50 4l-13 -50l-67 1l18 67q-58 23 -98 65q-87 90 -87 210q0 121 87 210q84 87 210 87z" />
    <glyph glyph-name="Ugrave" unicode="&#xd9;" horiz-adv-x="432" 
d="M112 793l-33 -72zM79 721l33 72l146 -84l-21 -46zM108 632h-102h102zM6 632h102v-209v-94v-24q0 -66 10 -87q12 -26 36 -41q22 -15 50 -15q25 0 47 13q22 12 36 35q13 21 13 90v11v113v208h103v-208v-113v-11q0 -94 -28 -142q-29 -47 -73 -72q-44 -26 -98 -26
q-59 0 -106 31q-47 30 -73 83q-4 7 -6.5 14.5t-4.5 16t-3.5 14t-2.5 15.5t-1.5 14t-1 15.5t-0.5 13.5v15v14q1 8 1 23v94v209z" />
    <glyph glyph-name="Uacute" unicode="&#xda;" horiz-adv-x="432" 
d="M276 791l33 -73zM309 718l-33 73l-145 -84l20 -47zM108 632h-102h102zM108 632h-102v-209v-94q0 -15 -1 -23v-14v-15t0.5 -13.5t1 -15.5t1.5 -14t2.5 -15.5t3.5 -14t4.5 -16t6.5 -14.5q26 -53 73 -83q47 -31 106 -31q54 0 98 26q44 25 73 72q28 48 28 142v11v113v208
h-103v-208v-113v-11q0 -69 -13 -90q-14 -23 -36 -35q-22 -13 -47 -13q-28 0 -50 15q-24 15 -36 41q-10 21 -10 87v24v94v209z" />
    <glyph glyph-name="Ucircumflex" unicode="&#xdb;" horiz-adv-x="432" 
d="M97 666l104 42zM201 708l-104 -42l-17 42l121 77v-1l1 1l120 -77l-17 -42zM108 632h-102h102zM6 632h102v-209v-94v-24q0 -66 10 -87q12 -26 36 -41q22 -15 50 -15q25 0 47 13q22 12 36 35q13 21 13 90v11v113v208h103v-208v-113v-11q0 -94 -28 -142q-29 -47 -73 -72
q-44 -26 -98 -26q-59 0 -106 31q-47 30 -73 83q-4 7 -6.5 14.5t-4.5 16t-3.5 14t-2.5 15.5t-1.5 14t-1 15.5t-0.5 13.5v15v14q1 8 1 23v94v209z" />
    <glyph glyph-name="Udieresis" unicode="&#xdc;" horiz-adv-x="432" 
d="M6 632h102v-209v-94v-24q0 -66 10 -87q12 -26 36 -41q22 -15 50 -15q25 0 47 13q22 12 36 35q13 21 13 90v11v113v208h103v-208v-113v-11q0 -94 -28 -142q-29 -47 -73 -72q-44 -26 -98 -26q-59 0 -106 31q-47 30 -73 83q-4 7 -6.5 14.5t-4.5 16t-3.5 14t-2.5 15.5
t-1.5 14t-1 15.5t-0.5 13.5v15v14q1 8 1 23v94v209zM6 632h102h-102zM258 765q21 0 36.5 -15t15.5 -37t-15.5 -37t-36.5 -15q-22 0 -37.5 15t-15.5 37t15.5 37t37.5 15zM115 769q22 0 37 -15.5t15 -36.5q0 -22 -15 -37.5t-37 -15.5q-21 0 -36.5 15.5t-15.5 37.5
q0 21 15.5 36.5t36.5 15.5z" />
    <glyph glyph-name="Yacute" unicode="&#xdd;" horiz-adv-x="456" 
d="M320 776l33 -73zM353 703l-33 73l-146 -84l21 -47zM272 276l165 351zM272 276l165 351h-113l-105 -223l-106 223h-113l169 -356v-202h103v207z" />
    <glyph glyph-name="germandbls" unicode="&#xdf;" horiz-adv-x="366" 
d="M166 309v51v52v-103zM108 36h-102l-1 434q0 68 48 114q47 47 113 47q67 0 114 -47q48 -48 48 -114q0 -59 -41 -107l2 -2q52 -52 52 -121q0 -70 -50 -120t-120 -50v102q28 0 48 20t20 48q0 27 -21 48q-22 21 -52 21v103q25 0 42 17t17 41q0 25 -17 42t-42 17
q-24 0 -41 -17t-17 -42v-434zM108 36h-102h102z" />
    <glyph glyph-name="agrave" unicode="&#xe0;" 
d="M163 805l-32 -73zM131 732l32 73l146 -85l-21 -46zM278 402l-51 -109zM442 69l-63 128h-198l-60 -128h-112l221 468l46 97l47 -96l231 -469h-112zM278 402l-51 -109h104z" />
    <glyph glyph-name="aacute" unicode="&#xe1;" 
d="M395 793l33 -73zM428 720l-33 73l-146 -85l21 -46zM278 402l-51 -109zM379 197l63 -128h112l-231 469l-47 96l-46 -97l-221 -468h112l60 128h198zM227 293l51 109l53 -109h-104z" />
    <glyph glyph-name="acircumflex" unicode="&#xe2;" 
d="M169 619l104 42zM273 661l-104 -42l-17 42l121 76v-1v1l121 -76l-17 -42zM278 402l-51 -109zM442 69l-63 128h-198l-60 -128h-112l221 468l46 97l47 -96l231 -469h-112zM278 402l-51 -109h104z" />
    <glyph glyph-name="atilde" unicode="&#xe3;" 
d="M278 402l-51 -109h104zM442 69l-63 128h-198l-60 -128h-112l221 468l46 97l47 -96l231 -469h-112zM227 293l51 109zM281 735q8 -9 26 -7t40 26l48 -48q-34 -34 -63 -44t-44 -5t-40 19q-27 16 -56 -11q-32 15 -47 44l-1 6l2 -2q31 28 58 35.5t40 3.5t37 -17z" />
    <glyph glyph-name="adieresis" unicode="&#xe4;" 
d="M278 402l-51 -109h104zM442 69l-63 128h-198l-60 -128h-112l221 468l46 97l47 -96l231 -469h-112zM227 293l51 109zM345 732q22 0 37 -15t15 -37t-15 -37t-37 -15t-37 15t-15 37t15 37t37 15zM203 736q22 0 37 -15.5t15 -36.5q0 -22 -15 -37t-37 -15t-37 15t-15 37
q0 21 15 36.5t37 15.5z" />
    <glyph glyph-name="aring" unicode="&#xe5;" 
d="M278 402l-51 -109h104zM442 69l-63 128h-198l-60 -128h-112l221 468l46 97l47 -96l231 -469h-112zM227 293l51 109zM282 825q40 0 69 -29q29 -27 29 -69t-29 -69q-29 -29 -69 -29q-41 0 -70 29t-29 69t29 69t70 29zM303 748q-9 9 -21 9q-14 0 -21 -9q-9 -8 -9 -21t9 -21
q7 -9 21 -9q12 0 21 9t9 21t-9 21z" />
    <glyph glyph-name="ae" unicode="&#xe6;" horiz-adv-x="744" 
d="M517 556v-132h152v-102h-152v-125h204v-103h-306v136h-184l-102 -136h-138l374 498l50 66h306v-102h-204zM309 332h106v136zM517 424v132v-132z" />
    <glyph glyph-name="ccedilla" unicode="&#xe7;" horiz-adv-x="579" 
d="M463 244l84 -57q-43 -63 -109 -97q-64 -34 -141 -34q-123 0 -210 87t-87 210t87 210t210 87q71 0 135 -32q63 -33 106 -91l-83 -60q-26 36 -69 59q-41 22 -89 22q-79 0 -137 -58t-58 -137q0 -80 58 -138q57 -57 137 -57q51 0 94 23t72 63zM547 187l-84 57zM255 70l68 1
q0 -8 0.5 -22.5t0.5 -20.5q1 -1 4 -2q28 -8 45 -28q19 -22 19 -50q0 -33 -22 -56q-22 -22 -53 -27q-6 -2 -27 -2q-9 0 -25 2q-20 2 -30 5q-17 4 -27 9l34 60q2 -1 9 -3l22 -4q3 0 9 -0.5t9 -0.5q11 0 15 1q10 1 14 7q4 3 4 8q0 4 -3 7q-4 4 -12 7l-10 2h-10l-41 -1l6 41
q1 5 1 25v42zM255 70l68 1z" />
    <glyph glyph-name="egrave" unicode="&#xe8;" horiz-adv-x="343" 
d="M76 784l-32 -73zM44 711l32 73l146 -85l-21 -46zM102 531v-132v132zM102 531v-132h152v-102h-152v-125h204v-103h-306v564h306v-102h-204z" />
    <glyph glyph-name="eacute" unicode="&#xe9;" horiz-adv-x="343" 
d="M266 790l33 -73zM299 717l-33 73l-146 -84l21 -47zM102 531v-132v132zM102 399v132h204v102h-306v-564h306v103h-204v125h152v102h-152z" />
    <glyph glyph-name="ecircumflex" unicode="&#xea;" horiz-adv-x="343" 
d="M57 652l104 42zM161 694l-104 -42l-18 42l121 76l1 -1v1l121 -76l-18 -42zM102 531v-132v132zM102 531v-132h152v-102h-152v-125h204v-103h-306v564h306v-102h-204z" />
    <glyph glyph-name="edieresis" unicode="&#xeb;" horiz-adv-x="343" 
d="M102 531v-132h152v-102h-152v-125h204v-103h-306v564h306v-102h-204zM102 399v132v-132zM228 773q22 0 37 -15t15 -37t-15 -37t-37 -15q-21 0 -36.5 15t-15.5 37t15.5 37t36.5 15zM86 777q22 0 37 -15.5t15 -36.5q0 -22 -15 -37t-37 -15t-37 15t-15 37q0 21 15 36.5
t37 15.5z" />
    <glyph glyph-name="igrave" unicode="&#xec;" horiz-adv-x="137" 
d="M-40 798l-32 -73zM-72 725l32 73l146 -85l-21 -46zM0 632h102h-102zM0 632h102v-563h-102v563z" />
    <glyph glyph-name="iacute" unicode="&#xed;" horiz-adv-x="137" 
d="M175 787l32 -73zM207 714l-32 73l-146 -85l21 -46zM0 632h102h-102zM102 632h-102v-563h102v563z" />
    <glyph glyph-name="icircumflex" unicode="&#xee;" horiz-adv-x="137" 
d="M-54 636l104 42zM50 678l-104 -42l-17 42l121 77v-2v2l121 -77l-17 -42zM0 632h102h-102zM0 632h102v-563h-102v563z" />
    <glyph glyph-name="idieresis" unicode="&#xef;" horiz-adv-x="137" 
d="M0 632h102v-563h-102v563zM102 632h-102h102zM120 768q22 0 37 -15t15 -37t-15 -37t-37 -15t-37 15t-15 37t15 37t37 15zM-22 772q21 0 36.5 -15.5t15.5 -36.5q0 -22 -15.5 -37t-36.5 -15q-22 0 -37 15t-15 37q0 21 15 36.5t37 15.5z" />
    <glyph glyph-name="ntilde" unicode="&#xf1;" horiz-adv-x="439" 
d="M300 631h102v-435v-125l-89 93l-211 217v-309h-102v434v125l89 -93l211 -217v310zM402 631h-102h102zM116 668l-46 50q30 28 56.5 35t40 2.5t38.5 -17.5q11 -5 16 -7t19 3.5t30 22.5l49 -48q-34 -34 -63 -44.5t-44 -5.5t-40 19q-28 18 -56 -10zM116 668l-46 50z" />
    <glyph glyph-name="ograve" unicode="&#xf2;" horiz-adv-x="625" 
d="M189 816l-33 -73zM156 743l33 73l146 -85l-21 -46zM435 490q-58 58 -138 58q-79 0 -137 -58t-58 -137q0 -80 58 -138q57 -57 137 -57q81 0 138 57t57 138q0 80 -57 137zM297 650q123 0 210 -87t87 -210t-87 -210t-210 -87t-210 87t-87 210t87 210t210 87z" />
    <glyph glyph-name="oacute" unicode="&#xf3;" horiz-adv-x="625" 
d="M392 790l33 -72zM425 718l-33 72l-146 -84l21 -46zM435 490q57 -57 57 -137q0 -81 -57 -138t-138 -57q-80 0 -137 57q-58 58 -58 138q0 79 58 137t137 58q80 0 138 -58zM297 650q-123 0 -210 -87t-87 -210t87 -210t210 -87t210 87t87 210t-87 210t-210 87z" />
    <glyph glyph-name="ocircumflex" unicode="&#xf4;" horiz-adv-x="625" 
d="M297 650q123 0 210 -87t87 -210t-87 -210t-210 -87t-210 87t-87 210t87 210t210 87zM435 490q-58 58 -138 58q-79 0 -137 -58t-58 -137q0 -80 58 -138q57 -57 137 -57q81 0 138 57t57 138q0 80 -57 137z" />
    <glyph glyph-name="otilde" unicode="&#xf5;" horiz-adv-x="625" 
d="M297 650q123 0 210 -87t87 -210t-87 -210t-210 -87t-210 87t-87 210t87 210t210 87zM435 490q-58 58 -138 58q-79 0 -137 -58t-58 -137q0 -80 58 -138q57 -57 137 -57q81 0 138 57t57 138q0 80 -57 137zM218 679l-46 50q30 28 56.5 35t40 2.5t38.5 -17.5q11 -5 16 -7
t19 3.5t30 22.5l49 -48q-26 -26 -47.5 -39t-40 -11.5t-29.5 5.5t-30 15q-9 8 -23 7.5t-33 -18.5zM218 679l-46 50z" />
    <glyph glyph-name="odieresis" unicode="&#xf6;" horiz-adv-x="625" 
d="M297 650q123 0 210 -87t87 -210t-87 -210t-210 -87t-210 87t-87 210t87 210t210 87zM435 490q-58 58 -138 58q-79 0 -137 -58t-58 -137q0 -80 58 -138q57 -57 137 -57q81 0 138 57t57 138q0 80 -57 137zM361 784q22 0 37 -15t15 -37t-15 -37t-37 -15t-37 15t-15 37t15 37
t37 15zM219 788q22 0 37 -15.5t15 -36.5q0 -22 -15 -37t-37 -15t-37 15t-15 37q0 21 15 36.5t37 15.5z" />
    <glyph glyph-name="oslash" unicode="&#xf8;" horiz-adv-x="626" 
d="M211 203l98 369q-2 0 -6 0.5t-6 0.5q-79 0 -137 -58q-57 -57 -57 -137q0 -81 57 -138q20 -20 51 -37zM372 558l-99 -373q16 -2 24 -2q81 0 138 57q57 59 57 138q0 80 -57 137q-30 30 -63 43zM297 675q13 0 39 -2l16 61h67l-20 -77q61 -23 108 -69q88 -88 88 -210
q0 -119 -88 -210q-85 -87 -210 -87q-29 0 -50 4l-13 -50l-67 1l18 67q-58 23 -98 65q-87 90 -87 210q0 121 87 210q84 87 210 87z" />
    <glyph glyph-name="ugrave" unicode="&#xf9;" horiz-adv-x="432" 
d="M90 783l-32 -72zM58 711l32 72l146 -84l-21 -46zM108 632h-102h102zM6 632h102v-209v-94v-24q0 -66 10 -87q12 -26 36 -41q22 -15 50 -15q25 0 47 13q22 12 36 35q13 21 13 90v11v113v208h103v-208v-113v-11q0 -94 -28 -142q-29 -47 -73 -72q-44 -26 -98 -26
q-59 0 -106 31q-47 30 -73 83q-4 7 -6.5 14.5t-4.5 16t-3.5 14t-2.5 15.5t-1.5 14t-1 15.5t-0.5 13.5v15v14q1 8 1 23v94v209z" />
    <glyph glyph-name="uacute" unicode="&#xfa;" horiz-adv-x="432" 
d="M280 794l32 -73zM312 721l-32 73l-146 -84l21 -47zM108 632h-102h102zM108 632h-102v-209v-94q0 -15 -1 -23v-14v-15t0.5 -13.5t1 -15.5t1.5 -14t2.5 -15.5t3.5 -14t4.5 -16t6.5 -14.5q26 -53 73 -83q47 -31 106 -31q54 0 98 26q44 25 73 72q28 48 28 142v11v113v208
h-103v-208v-113v-11q0 -69 -13 -90q-14 -23 -36 -35q-22 -13 -47 -13q-28 0 -50 15q-24 15 -36 41q-10 21 -10 87v24v94v209z" />
    <glyph glyph-name="ucircumflex" unicode="&#xfb;" horiz-adv-x="432" 
d="M93 666l104 42zM197 708l-104 -42l-17 43l120 76l1 -1v1l121 -76l-17 -43zM108 632h-102h102zM6 632h102v-209v-94v-24q0 -66 10 -87q12 -26 36 -41q22 -15 50 -15q25 0 47 13q22 12 36 35q13 21 13 90v11v113v208h103v-208v-113v-11q0 -94 -28 -142q-29 -47 -73 -72
q-44 -26 -98 -26q-59 0 -106 31q-47 30 -73 83q-4 7 -6.5 14.5t-4.5 16t-3.5 14t-2.5 15.5t-1.5 14t-1 15.5t-0.5 13.5v15v14q1 8 1 23v94v209z" />
    <glyph glyph-name="udieresis" unicode="&#xfc;" horiz-adv-x="432" 
d="M6 632h102v-209v-94v-24q0 -66 10 -87q12 -26 36 -41q22 -15 50 -15q25 0 47 13q22 12 36 35q13 21 13 90v11v113v208h103v-208v-113v-11q0 -94 -28 -142q-29 -47 -73 -72q-44 -26 -98 -26q-59 0 -106 31q-47 30 -73 83q-4 7 -6.5 14.5t-4.5 16t-3.5 14t-2.5 15.5
t-1.5 14t-1 15.5t-0.5 13.5v15v14q1 8 1 23v94v209zM6 632h102h-102zM265 758q22 0 37 -15t15 -37t-15 -37t-37 -15t-37 15t-15 37t15 37t37 15zM123 762q22 0 37 -15.5t15 -36.5q0 -22 -15 -37t-37 -15t-37 15t-15 37q0 21 15 36.5t37 15.5z" />
    <glyph glyph-name="yacute" unicode="&#xfd;" horiz-adv-x="456" 
d="M287 780l33 -73zM320 707l-33 73l-145 -84l21 -47zM272 276l165 351zM272 276l165 351h-113l-105 -223l-106 223h-113l169 -356v-202h103v207z" />
    <glyph glyph-name="ydieresis" unicode="&#xff;" horiz-adv-x="456" 
d="M437 627l-165 -351v-207h-103v202l-169 356h113l106 -223l105 223h113zM437 627l-165 -351zM275 754q22 0 37 -15t15 -37t-15 -37t-37 -15t-37 15t-15 37t15 37t37 15zM133 758q21 0 36.5 -15.5t15.5 -36.5q0 -22 -15.5 -37t-36.5 -15q-22 0 -37 15t-15 37q0 21 15 36.5
t37 15.5z" />
    <glyph glyph-name="dotlessi" unicode="&#x131;" horiz-adv-x="137" 
d="M0 632h102h-102zM102 632h-102v-563h102v563z" />
    <glyph glyph-name="OE" unicode="&#x152;" horiz-adv-x="839" 
d="M292 675q115 0 201 -78v61h306v-102h-204v-132h152v-102h-152v-125h204v-103h-306v65q-84 -78 -201 -78q-123 0 -210 87t-87 210t87 210t210 87zM429 515q-58 58 -137 58q-82 0 -138 -58q-57 -57 -57 -137q0 -79 57 -138q57 -57 138 -57q80 0 137 57q58 58 58 138
q0 79 -58 137z" />
    <glyph glyph-name="oe" unicode="&#x153;" horiz-adv-x="860" 
d="M302 675q115 0 201 -78v61h306v-102h-204v-132h152v-102h-152v-125h204v-103h-306v65q-84 -78 -201 -78q-123 0 -210 87t-87 210t87 210t210 87zM439 515q-58 58 -137 58q-82 0 -138 -58q-57 -57 -57 -137q0 -79 57 -138q57 -57 138 -57q80 0 137 57q58 58 58 138
q0 79 -58 137z" />
    <glyph glyph-name="Scaron" unicode="&#x160;" horiz-adv-x="386" 
d="M179 725l104 42zM179 725l104 42l17 -42l-121 -77v1l-1 -1l-120 77l17 42zM250 495l90 49zM340 544l-90 -49q-9 15 -29 27q-25 11 -46 8q-19 -3 -33 -17q-14 -13 -15 -33q-2 -15 4 -25q5 -11 18 -23q9 -6 22 -12q17 -6 31 -10q35 -10 42 -13q26 -10 47 -28q35 -27 51 -64
q17 -38 14 -79q-6 -59 -46 -102q-39 -43 -100 -50q-58 -8 -110 17q-55 26 -80 75q-6 11 -13 30q-4 11 -7 33l101 14q1 -5 4 -15t5 -13q14 -23 34 -32q27 -13 53 -8q23 4 39 20q15 15 18 39q0 18 -5 29q-8 18 -22 26q-5 6 -21 13q-17 6 -31 10q-17 3 -42 13q-20 7 -48 28
q-30 25 -47 60q-17 38 -14 75q5 53 44 96q40 40 94 47q53 8 103 -16q47 -23 75 -71z" />
    <glyph glyph-name="scaron" unicode="&#x161;" horiz-adv-x="386" 
d="M183 717l104 42zM183 717l104 42l17 -42l-121 -76v1l-1 -1l-120 76l17 42zM250 495l90 49zM340 544l-90 -49q-9 15 -29 27q-25 11 -46 8q-19 -3 -33 -17q-14 -13 -15 -33q-2 -15 4 -25q5 -11 18 -23q9 -6 22 -12q17 -6 31 -10q35 -10 42 -13q26 -10 47 -28q35 -27 51 -64
q17 -38 14 -79q-6 -59 -46 -102q-39 -43 -100 -50q-58 -8 -110 17q-55 26 -80 75q-6 11 -13 30q-4 11 -7 33l101 14q1 -5 4 -15t5 -13q14 -23 34 -32q27 -13 53 -8q23 4 39 20q15 15 18 39q0 18 -5 29q-8 18 -22 26q-5 6 -21 13q-17 6 -31 10q-17 3 -42 13q-20 7 -48 28
q-30 25 -47 60q-17 38 -14 75q5 53 44 96q40 40 94 47q53 8 103 -16q47 -23 75 -71z" />
    <glyph glyph-name="Ydieresis" unicode="&#x178;" horiz-adv-x="456" 
d="M437 627l-165 -351v-207h-103v202l-169 356h113l106 -223l105 223h113zM437 627l-165 -351zM286 754q22 0 37 -15t15 -37t-15 -37t-37 -15t-37 15t-15 37t15 37t37 15zM144 758q21 0 36.5 -15.5t15.5 -36.5q0 -22 -15.5 -37t-36.5 -15q-22 0 -37 15t-15 37q0 21 15 36.5
t37 15.5z" />
    <glyph glyph-name="Zcaron" unicode="&#x17d;" horiz-adv-x="460" 
d="M197 731l104 42zM197 731l104 42l17 -42l-121 -77v1v-1l-121 77l17 42zM29 632v-102v102zM29 530v102h39h227h115l-245 -460h219v-102h-42h-232h-116l246 460h-211z" />
    <glyph glyph-name="zcaron" unicode="&#x17e;" horiz-adv-x="460" 
d="M215 728l104 42zM215 728l104 42l17 -42l-120 -76l-1 1v-1l-121 76l17 42zM29 632v-102v102zM29 530v102h39h227h115l-245 -460h219v-102h-42h-232h-116l246 460h-211z" />
    <glyph glyph-name="breve" unicode="&#x2d8;" horiz-adv-x="273" 
d="M121 598l104 42zM121 598l104 42l17 -42l-120 -77l-1 1v-1l-121 77l17 42z" />
    <glyph glyph-name="quotedblleft" unicode="&#x201c;" horiz-adv-x="262" 
d="M136 631h99h-99zM122 631h-100h100zM22 631h100l-75 -154h-45zM136 631h99l-72 -154h-44z" />
    <glyph glyph-name="quotedblright" unicode="&#x201d;" horiz-adv-x="262" 
d="M136 631h99h-99zM122 631h-100h100zM22 631h100l-75 -154h-45zM136 631h99l-72 -154h-44z" />
    <glyph glyph-name="guilsinglleft" unicode="&#x2039;" horiz-adv-x="406" 
d="M215 529h154q-171 -152 -218 -196q65 -61 221 -202q-1 0 -1 -1h-150q-116 106 -182 166q-40 38 -41 38q8 7 21 19t21 19q32 28 91 81.5t84 75.5z" />
    <glyph glyph-name="guilsinglright" unicode="&#x203a;" horiz-adv-x="406" 
d="M0 529h154q30 -26 87.5 -78.5t87.5 -78.5q8 -6 21.5 -18.5t21.5 -19.5q-8 -7 -22 -20t-20 -18l-182 -166h-149q-1 0 -1 1q65 61 221 202q-37 33 -219 196z" />
    <glyph glyph-name="fraction" unicode="&#x2044;" horiz-adv-x="280" 
d="M191 696h67h-67zM258 696h-67l-186 -698l67 -1z" />
    <glyph glyph-name="Euro" unicode="&#x20ac;" horiz-adv-x="503" 
d="M357 286h103q0 -52 -26 -97q-24 -45 -71 -71q-23 -13 -44 -18q-23 -6 -46 -6h-55q-75 0 -132 57q-44 46 -53 111h-46l27 84h18v26h-41l27 84h14v12q0 79 54 135q54 57 132 57h55q23 0 46 -6q21 -5 44 -18q47 -28 71 -71q26 -47 26 -97h-103q0 26 -12 46q-12 21 -33 33
l-19 8q-14 2 -20 2h-55q-33 0 -58 -25t-25 -64v-12h111l-27 -84h-84v-26h107l-27 -84h-78q6 -23 23 -40q24 -26 58 -26h55q11 0 20 3q4 1 19 7q21 12 33 33t12 47zM460 286h-103h103z" />
    <glyph glyph-name="apple" unicode="&#xf8ff;" horiz-adv-x="1419" 
d="M1419 118q2 -44 -40 -44q-40 0 -43 47l10 9l14 -7q2 -27 18 -27q16 3 16 20q0 13 -20 33q-15 14 -29 29q-6 15 -6 25q0 42 39 42q37 0 40 -39l-24 -5q-1 22 -16 22q-13 0 -13 -19q0 -12 33 -45q21 -21 21 -41zM1266 75v143h-26v25h79v-25h-28v-143l-12 -9zM1385 0h-5
l21 45h5zM1334 1h-6v35h6l17 -21l17 21h6v-35h-8v24l-15 -20h-1l-16 20v-24zM603 760l110 240l106 -239l262 -30l-193 -175l53 -258l-227 130l-230 -130l54 255l-195 178zM1133 243h28l33 -113v113h26v-168h-27l-35 108v-108h-25v144l-9 11zM1269 10v18q0 8 9 8h26q9 0 9 -8
v-18q0 -9 -9 -9h-26q-9 0 -9 9zM1248 23v6h-23v-21h23v7l7 -1v-4q0 -9 -9 -9h-21q-9 0 -9 9v18q0 8 9 8h21q9 0 9 -8v-4zM1070 245q40 0 40 -40v-91q0 -40 -40 -40t-40 40v91q0 40 40 40zM1190 14h11q2 -2 2 -3v-7q0 -1 -2 -3h-10q-1 0 -1 2v11zM1179 30h-16v-29h-9v29h-16
v6h41v-6zM966 146v-71h-25v143l-8 12l8 13h72v-25h-47v-47h34v-25h-34zM1084 10v18q0 8 9 8h26q9 0 9 -8v-18q0 -9 -9 -9h-26q-9 0 -9 9zM1041 1h-8v35h31q9 0 9 -7v-8q0 -6 -9 -6h-23v-14zM906 100v-25h-68v168l12 10l13 -10v-143h43zM1011 26v4h-23v-7h22q9 0 9 -9v-4
q0 -9 -9 -9h-22q-9 0 -9 9l6 1v-3h26v7h-22q-9 0 -9 9v4q0 8 9 8h20q9 0 9 -7v-1zM956 26v3h-26v-21h26v7h-13v6h22v-11q0 -9 -9 -9h-25q-8 0 -8 9v18q0 8 8 8h25q9 0 9 -8zM820 75h-71v143l-9 12l9 13h71v-25h-46v-47h34v-25h-34v-46h46v-25zM864 10v18q0 8 9 8h27
q9 0 9 -8v-18q0 -9 -9 -9h-27q-9 0 -9 9zM855 1h-35v35h9v-28h26v-7zM686 73q-40 0 -40 40v91q0 41 40 41t40 -41v-19h-26v20q0 15 -14 15q-15 0 -15 -15v-91q0 -15 15 -15q14 0 14 15v32h-14l-10 12l10 13h40v-58q0 -40 -40 -40zM795 1h-29v35h32q7 0 7 -7v-4q0 -4 -5 -6
q6 -1 6 -6v-5q0 -7 -11 -7zM740 14h11v-13h-10q-2 0 -2 3v7q0 2 1 3zM545 243h39q40 0 40 -40v-24q0 -19 -14 -30l19 -74h-28l-15 64h-16v-64h-25v144l-9 11zM730 1h-35v35h9v-28h26v-7zM683 1h-38v35h38v-6h-29v-7h16v-7h-16v-8h29v-7zM491 114h-26l-6 -39l-14 -7l-12 7
l27 168h35l29 -168l-14 -7l-14 7zM623 26v3h-27v-21h27v7h-14v6h22v-11q0 -9 -8 -9h-25q-9 0 -9 9v18q0 8 9 8h25q8 0 8 -8zM545 1h-9v35h32q7 0 7 -7v-8q0 -7 -7 -7h-5l16 -13h-11l-15 13h-8v-13zM488 1h-9l20 35h9l20 -35h-9l-5 8h-23zM339 75v70l-34 98h28l18 -60l19 60
h28l-34 -98v-70h-25zM461 1h-7v15l-19 20h11l12 -13l12 13h10l-19 -18v-17zM319 100v-25h-69v168l11 10l14 -10v-143h44zM440 1h-36v35h9v-28h27v-7zM395 1h-35v35h8v-28h27v-7zM233 100v-25h-69v168l11 10l14 -10v-143h44zM344 1h-8v35h8v-35zM311 1h-28v35h31q7 0 7 -7v-4
q0 -5 -6 -6q6 -1 6 -6v-5q0 -7 -10 -7zM255 0h-5l21 45h5zM141 243v-168l-13 -9l-13 9v168h26zM233 0h-5l21 45h5zM214 36h6q2 0 3 -1v-11h-13v11q1 1 4 1zM210 14h13v-13h-12l-1 2v11zM55 75h-46v143l-9 11l9 14h37q44 0 44 -47q0 -24 -17 -33q21 -7 21 -40q0 -48 -39 -48z
M168 1h-9v35h31q9 0 9 -7v-8q0 -6 -9 -6h-22v-14zM149 30h-18v-29h-7v29h-16v6h41v-6zM104 30h-16v-29h-9v29h-16v6h41v-6zM18 1h-9v35h9v-13h26v13h7v-35h-7v15h-26v-15zM781 426l28 18l-60 361h-75l-61 -361l28 -18l28 18l14 82h56l12 -82zM1276 29v-21h29v21h-29z
M1084 114v91q0 15 -14 15q-15 0 -15 -15v-91q0 -15 15 -15q14 0 14 15zM1091 29v-21h28v21h-28zM1060 30h-19v-9h19q4 0 4 3v4q0 2 -4 2zM873 29v-21h27v21h-27zM794 30h-19v-7h19q4 0 4 2v3q0 2 -4 2zM794 16h-19v-8h19q4 0 4 2v4q0 2 -4 2zM599 178v25q0 13 -14 13h-15
v-52h15q14 0 14 14zM488 139l-10 65l-9 -65h19zM564 30h-19v-10h19q4 0 4 3v5q0 2 -4 2zM503 30l-8 -15h16zM310 30h-20v-7h20q4 0 4 2v3q0 2 -4 2zM310 16h-20v-8h20q4 0 4 2v4q0 2 -4 2zM36 218v-44h10q18 0 18 22t-18 22h-10zM186 30h-18v-9h18q4 0 4 3v4q0 2 -4 2z
M36 150v-50h10q20 0 20 24q0 26 -20 26h-10zM690 580l20 143l21 -143h-41z" />
    </font>
</defs>
</svg>
